<svg width="98" height="25" viewBox="0 0 98 25" fill="none" xmlns="http://www.w3.org/2000/svg">
<path d="M4 12.4903C4 5.61715 9.51544 0.31469 16.3457 0.31469C23.2521 0.31469 28.463 5.72175 28.463 12.2331C28.463 14.9652 27.5963 17.5166 26.1006 19.5917L30.235 24.2657H25.0336L23.3762 22.3142C21.3758 23.7613 18.8988 24.6179 16.1459 24.6179C9.41076 24.6183 4 19.2969 4 12.4903ZM16.3457 20.858C18.1082 20.858 19.68 20.3441 20.9563 19.449L18.4988 16.5549H23.4048C23.9761 15.384 24.2906 14.0321 24.2906 12.547C24.2906 7.66332 20.8707 4.20773 16.2696 4.20773C11.659 4.20773 8.2486 7.67283 8.2486 12.4419C8.2486 17.1928 11.6209 20.858 16.3457 20.858ZM31.5114 6.33117H35.417V17.0407C35.417 19.5921 36.6363 21.1723 38.9606 21.1723C41.2849 21.1723 42.8472 19.5921 42.8472 17.0407V6.33117H46.7528V24.2661H42.8472V22.1716C41.647 23.6186 39.894 24.4943 37.8365 24.4943C34.2453 24.4943 31.8635 21.9334 31.5495 18.2876C31.5209 17.9639 31.5114 17.6212 31.5114 17.0312V6.33117ZM58.7365 5.95038C64.1948 5.95038 67.748 10.4913 67.2242 16.5169H53.6687C53.9261 19.2109 56.3075 21.1624 59.2222 21.1624C61.0608 21.1624 62.6707 20.3913 64.1377 18.7921L66.6143 21.4005C64.4042 23.6662 61.9657 24.6849 59.1267 24.6849C53.5252 24.6849 49.7052 20.7249 49.7052 15.3749C49.706 9.97695 53.6021 5.95038 58.7365 5.95038ZM63.2615 13.4135C62.8138 10.9382 61.0037 9.45352 58.6509 9.45352C56.2028 9.45352 54.3261 11.0622 53.8019 13.4135H63.2615ZM71.5588 18.7921C72.9688 20.3627 74.7499 21.2674 76.5124 21.2674C78.1413 21.2674 79.2083 20.4487 79.2083 19.2683C79.2083 18.3166 78.5033 17.5835 77.0743 17.2027L74.8736 16.6223C71.6349 15.7656 69.9296 14.0138 69.9296 11.5389C69.9296 8.48314 72.5207 5.9702 76.2931 5.9702C78.7983 5.9702 81.0655 7.065 82.6853 8.80686L80.2277 11.3677C79.1226 10.1874 77.7222 9.47333 76.2459 9.47333C74.6742 9.47333 73.6548 10.2634 73.6548 11.2917C73.6548 12.1674 74.3407 12.8528 76.1413 13.3002L78.1131 13.7856C81.3232 14.5757 82.9525 16.6417 82.9525 19.1451C82.9525 22.4771 80.0564 24.6853 76.3701 24.6853C73.6932 24.6853 71.1591 23.5144 69.0826 21.4009L71.5588 18.7921ZM85.5714 2.53283H89.3629V6.33117H92.2685L95.1741 9.75823H89.3633V17.2975C89.3633 19.7537 90.4303 20.8771 92.7546 20.8771H93.5548V24.3041H92.2213C87.8871 24.3041 85.5722 21.8007 85.5722 17.2883V2.53283H85.5714Z" fill="#034C1F"/>
<path d="M96.3265 5.93799C95.3669 5.93799 94.6528 5.18752 94.6528 4.23775C94.6528 3.28798 95.3669 2.53275 96.3265 2.53275C97.286 2.53275 98.0001 3.28322 98.0001 4.23299C98.0001 5.18276 97.2864 5.93799 96.3265 5.93799ZM96.3265 2.82914C95.5061 2.82914 94.9637 3.42666 94.9637 4.23735C94.9637 5.04805 95.5061 5.64121 96.3265 5.64121C97.1468 5.64121 97.6892 5.04369 97.6892 4.23299C97.6896 3.4223 97.1472 2.82914 96.3265 2.82914ZM96.7019 5.0948L96.4054 4.44141H96.0576V5.0948H95.7472V3.32047H96.401C96.7392 3.32047 97.0314 3.51502 97.0314 3.87638C97.0314 4.10778 96.9295 4.29322 96.7115 4.39069L97.0406 5.0948H96.7019ZM96.401 3.60734H96.0533V4.15414H96.401C96.5866 4.15414 96.7071 4.07093 96.7071 3.87638C96.7067 3.6957 96.5675 3.60734 96.401 3.60734Z" fill="#034C1F"/>
</svg>
