<svg width="98" height="25" viewBox="0 0 98 25" fill="none" xmlns="http://www.w3.org/2000/svg">
<path d="M4 12.49C4 5.43939 9.51544 0 16.3457 0C23.2521 0 28.463 5.5467 28.463 12.2262C28.463 15.0289 27.5962 17.6461 26.1006 19.7748L30.235 24.5695H25.0336L23.3762 22.5677C21.3758 24.0521 18.8988 24.9309 16.1459 24.9309C9.41076 24.9313 4 19.4724 4 12.49ZM16.3457 21.0739C18.1082 21.0739 19.6799 20.5467 20.9563 19.6285L18.4987 16.6596H23.4047C23.9761 15.4585 24.2905 14.0716 24.2905 12.5482C24.2905 7.53841 20.8707 3.99358 16.2696 3.99358C11.659 3.99358 8.24859 7.54817 8.24859 12.4405C8.24859 17.314 11.6209 21.0739 16.3457 21.0739ZM31.5114 6.17186H35.417V17.158C35.417 19.7752 36.6362 21.3962 38.9606 21.3962C41.2849 21.3962 42.8472 19.7752 42.8472 17.158V6.17186H46.7528V24.57H42.8472V22.4213C41.6469 23.9058 39.894 24.8041 37.8365 24.8041C34.2453 24.8041 31.8635 22.1771 31.5494 18.4371C31.5209 18.105 31.5114 17.7534 31.5114 17.1482V6.17186ZM58.7365 5.78124C64.1948 5.78124 67.7479 10.4394 67.2241 16.6206H53.6687C53.926 19.3842 56.3074 21.3861 59.2222 21.3861C61.0608 21.3861 62.6706 20.5951 64.1377 18.9546L66.6143 21.6304C64.4041 23.9546 61.9656 24.9996 59.1266 24.9996C53.5251 24.9996 49.7052 20.9373 49.7052 15.4491C49.706 9.91179 53.6021 5.78124 58.7365 5.78124ZM63.2614 13.4371C62.8138 10.8979 61.0037 9.37485 58.6508 9.37485C56.2028 9.37485 54.3261 11.0251 53.8019 13.4371H63.2614ZM71.5587 18.9546C72.9687 20.5658 74.7498 21.4938 76.5123 21.4938C78.1412 21.4938 79.2082 20.654 79.2082 19.4431C79.2082 18.4668 78.5032 17.7148 77.0742 17.3242L74.8736 16.7287C71.6349 15.8499 69.9295 14.0529 69.9295 11.5141C69.9295 8.3794 72.5207 5.80156 76.2931 5.80156C78.7982 5.80156 81.0654 6.92464 82.6852 8.71149L80.2276 11.3385C79.1226 10.1276 77.7221 9.39517 76.2459 9.39517C74.6741 9.39517 73.6547 10.2057 73.6547 11.2605C73.6547 12.1588 74.3407 12.862 76.1412 13.3209L78.113 13.8188C81.3232 14.6293 82.9524 16.7486 82.9524 19.3167C82.9524 22.7347 80.0563 25 76.37 25C73.6932 25 71.1591 23.7989 69.0826 21.6308L71.5587 18.9546ZM85.5714 2.27542H89.3628V6.17186H92.2684L95.174 9.68742H89.3632V17.4213C89.3632 19.9411 90.4302 21.0934 92.7545 21.0934H93.5547V24.609H92.2212C87.887 24.609 85.5722 22.0409 85.5722 17.412V2.27542H85.5714Z" fill="white"/>
<path d="M96.3264 5.7686C95.3669 5.7686 94.6528 4.99875 94.6528 4.02444C94.6528 3.05012 95.3669 2.27539 96.3264 2.27539C97.286 2.27539 98.0001 3.04525 98.0001 4.01956C98.0001 4.99387 97.2864 5.7686 96.3264 5.7686ZM96.3264 2.57943C95.5061 2.57943 94.9637 3.19239 94.9637 4.02403C94.9637 4.85567 95.5061 5.46416 96.3264 5.46416C97.1468 5.46416 97.6892 4.8512 97.6892 4.01956C97.6896 3.18792 97.1472 2.57943 96.3264 2.57943ZM96.7019 4.90363L96.4053 4.23336H96.0576V4.90363H95.7472V3.08345H96.401C96.7392 3.08345 97.0314 3.28303 97.0314 3.65373C97.0314 3.89111 96.9295 4.08134 96.7114 4.18133L97.0405 4.90363H96.7019ZM96.401 3.37774H96.0533V3.93867H96.401C96.5865 3.93867 96.7071 3.85331 96.7071 3.65373C96.7067 3.46838 96.5675 3.37774 96.401 3.37774Z" fill="white"/>
</svg>
