<svg width="24" height="24" viewBox="0 0 24 24" fill="none" xmlns="http://www.w3.org/2000/svg">
<g clip-path="url(#clip0_2_38)">
<path d="M4.28372 4.6875C4.28372 3.44486 5.29108 2.4375 6.53372 2.4375H14.1525C15.3952 2.4375 16.4025 3.44486 16.4025 4.6875V16.3775C16.4025 17.6201 15.3952 18.6275 14.1525 18.6275H6.53372C5.29108 18.6275 4.28372 17.6201 4.28372 16.3775V4.6875Z" fill="#005984"/>
<path d="M7.59741 7.62253C7.59741 6.37989 8.60477 5.37253 9.84741 5.37253H17.4662C18.7089 5.37253 19.7162 6.37989 19.7162 7.62253V19.3125C19.7162 20.5551 18.7089 21.5625 17.4662 21.5625H9.84741C8.60477 21.5625 7.59741 20.5551 7.59741 19.3125V7.62253Z" fill="#008DD1"/>
<path fill-rule="evenodd" clip-rule="evenodd" d="M9.96371 9.44727C9.96371 9.24016 10.1316 9.07227 10.3387 9.07227H16.975C17.1821 9.07227 17.35 9.24016 17.35 9.44727C17.35 9.65437 17.1821 9.82227 16.975 9.82227H10.3387C10.1316 9.82227 9.96371 9.65437 9.96371 9.44727Z" fill="white"/>
<path fill-rule="evenodd" clip-rule="evenodd" d="M9.96375 12.1385C9.96375 11.9314 10.1316 11.7635 10.3387 11.7635H16.975C17.1821 11.7635 17.35 11.9314 17.35 12.1385C17.35 12.3456 17.1821 12.5135 16.975 12.5135H10.3387C10.1316 12.5135 9.96375 12.3456 9.96375 12.1385Z" fill="white"/>
<path fill-rule="evenodd" clip-rule="evenodd" d="M9.96375 14.8297C9.96375 14.6226 10.1316 14.4547 10.3387 14.4547H14.7372C14.9443 14.4547 15.1122 14.6226 15.1122 14.8297C15.1122 15.0368 14.9443 15.2047 14.7372 15.2047H10.3387C10.1316 15.2047 9.96375 15.0368 9.96375 14.8297Z" fill="white"/>
</g>
<defs>
<clipPath id="clip0_2_38">
<rect width="24" height="24" fill="white"/>
</clipPath>
</defs>
</svg>
