<svg width="24" height="24" viewBox="0 0 24 24" fill="none" xmlns="http://www.w3.org/2000/svg">
<path fill-rule="evenodd" clip-rule="evenodd" d="M4.875 5.25C4.57663 5.25 4.29048 5.36853 4.0795 5.5795C3.86853 5.79048 3.75 6.07663 3.75 6.375V19.125C3.75 19.4234 3.86853 19.7095 4.0795 19.9205C4.29048 20.1315 4.57663 20.25 4.875 20.25H19.125C19.4234 20.25 19.7095 20.1315 19.9205 19.9205C20.1315 19.7095 20.25 19.4234 20.25 19.125V8.625C20.25 8.32663 20.1315 8.04048 19.9205 7.8295C19.7095 7.61853 19.4234 7.5 19.125 7.5H5.625C5.41789 7.5 5.25 7.33211 5.25 7.125C5.25 6.91789 5.41789 6.75 5.625 6.75H19.125C19.6223 6.75 20.0992 6.94754 20.4508 7.29918C20.8025 7.65081 21 8.12772 21 8.625V19.125C21 19.6223 20.8025 20.0992 20.4508 20.4508C20.0992 20.8025 19.6223 21 19.125 21H4.875C4.37772 21 3.9008 20.8025 3.54917 20.4508C3.19754 20.0992 3 19.6223 3 19.125V6.375C3 5.87772 3.19754 5.40081 3.54917 5.04917C3.9008 4.69754 4.37772 4.5 4.875 4.5H16.875C17.0821 4.5 17.25 4.66789 17.25 4.875C17.25 5.08211 17.0821 5.25 16.875 5.25H4.875Z" fill="#005984"/>
<path d="M6 6.75V2.25H18.72V6.75" fill="#008DD1"/>
<circle cx="18.3822" cy="13.8678" r="4.13223" fill="#005984"/>
<path fill-rule="evenodd" clip-rule="evenodd" d="M23.2038 10.3395C23.2985 10.4341 23.2986 10.5875 23.204 10.6822L18.7307 15.1603C18.6853 15.2058 18.6236 15.2314 18.5594 15.2314C18.4951 15.2314 18.4334 15.2059 18.3879 15.1604L16.5996 13.3721C16.505 13.2774 16.505 13.124 16.5996 13.0294C16.6942 12.9347 16.8477 12.9347 16.9423 13.0294L18.5592 14.6463L22.8611 10.3397C22.9557 10.245 23.1091 10.2449 23.2038 10.3395Z" fill="#EBEDEF"/>
</svg>
