<svg width="42" height="42" viewBox="0 0 42 42" fill="none" xmlns="http://www.w3.org/2000/svg">
<path fill-rule="evenodd" clip-rule="evenodd" d="M17.983 31.8399C18.1639 29.3586 18.3641 26.612 20.8157 26.668C23.2759 26.6119 23.4742 29.3622 23.6532 31.8446C23.7991 33.8699 23.9323 35.7171 25.2703 35.7171C27.294 35.7171 27.4842 33.3723 27.7097 30.5915C27.8161 29.2799 27.9303 27.8714 28.2485 26.5662C28.294 26.3794 28.3438 26.1927 28.3969 26.0062C29.5063 26.6215 30.542 27.3805 31.4748 28.2721C34.3388 31.0096 35.9984 34.7725 36.0885 38.7335H5.54303C5.63316 34.7725 7.29271 31.0096 10.1568 28.2721C11.0926 27.3776 12.1319 26.6165 13.2454 26.0002C13.2993 26.1889 13.3497 26.3776 13.3957 26.5662C13.7149 27.8717 13.8276 29.2838 13.9324 30.5989C14.1538 33.3738 14.3406 35.7171 16.3612 35.7171C17.7003 35.7171 17.8351 33.8671 17.983 31.8399Z" fill="#008DD1"/>
<path d="M27.1474 13.478C26.2864 13.3052 25.4383 13.3968 24.6715 13.6048C23.138 14.0207 21.7849 14.7432 20.8161 14.7432C19.8429 14.7432 18.4911 14.0333 16.9606 13.6246C15.4301 13.2159 13.5778 13.2616 11.9468 14.9347C10.2906 16.6334 10.2794 18.7492 10.7983 20.7514C11.3172 22.7536 12.3036 24.7815 12.777 26.7173C13.247 28.6396 13.2477 30.8964 13.5029 32.7504C13.6304 33.6773 13.8151 34.515 14.2436 35.1964C14.6721 35.8777 15.4357 36.3548 16.3615 36.3548C16.8967 36.3548 17.3983 36.1044 17.7113 35.7358C18.0243 35.3672 18.1879 34.9217 18.3054 34.4407C18.5404 33.4788 18.5775 32.327 18.6683 31.2067C18.7592 30.0863 18.9097 29.0055 19.2351 28.3082C19.5606 27.611 19.9036 27.2835 20.8012 27.304C20.8111 27.3042 20.821 27.3042 20.831 27.304C21.7323 27.2834 22.0762 27.6113 22.402 28.3082C22.7278 29.0052 22.8762 30.0865 22.9663 31.2067C23.0564 32.3269 23.0928 33.4763 23.3267 34.4382C23.4437 34.9192 23.6081 35.3669 23.9208 35.7358C24.2335 36.1046 24.7354 36.3548 25.2706 36.3548C26.196 36.3548 26.961 35.8814 27.391 35.2013C27.821 34.5213 28.005 33.6841 28.1343 32.7578C28.3928 30.9052 28.3972 28.6471 28.8676 26.7173C29.3407 24.7764 30.3279 22.7613 30.8487 20.7663C31.3696 18.7713 31.3585 16.6591 29.7003 14.9371C28.8822 14.0876 28.0083 13.6507 27.1474 13.478L27.1474 13.478ZM26.8839 14.6712C27.4961 14.7884 28.112 15.1228 28.783 15.8196C30.103 17.1903 30.0901 18.6359 29.6183 20.4432C29.1464 22.2504 28.1493 24.2848 27.6296 26.4165C27.1073 28.5594 27.1118 30.8767 26.874 32.5813C26.755 33.4336 26.5672 34.1209 26.3146 34.5202C26.0621 34.9196 25.8343 35.082 25.2706 35.082C25.0613 35.082 25.004 35.0442 24.8928 34.913C24.7815 34.7818 24.6559 34.5128 24.5646 34.1374C24.3821 33.3868 24.3294 32.257 24.2365 31.1023C24.1437 29.9475 24.0183 28.759 23.5554 27.7688C23.0946 26.783 22.1391 26.0131 20.8161 26.0362C19.4956 26.0131 18.5417 26.7833 18.0817 27.7688C17.6196 28.7587 17.4942 29.9476 17.4006 31.1023C17.3069 32.2569 17.2534 33.3867 17.07 34.1374C16.9783 34.5128 16.8509 34.7816 16.7394 34.913C16.6278 35.0444 16.5709 35.082 16.3615 35.082C15.7983 35.082 15.5716 34.9203 15.32 34.5202C15.0684 34.1201 14.8831 33.4296 14.7656 32.5763C14.5308 30.8698 14.5376 28.5518 14.0149 26.4141C13.4955 24.2899 12.5019 22.2468 12.0313 20.4307C11.5606 18.6147 11.5497 17.1651 12.859 15.8221C14.1934 14.4533 15.3152 14.5009 16.6325 14.8526C17.9497 15.2044 19.3202 16.016 20.8161 16.016C22.3163 16.016 23.6872 15.19 25.0046 14.8327C25.6633 14.6541 26.2717 14.554 26.8839 14.6712V14.6712Z" fill="#005984"/>
<path d="M19.9634 4.37995C13.4735 4.47658 7.24829 7.43601 3.90269 13.0529C3.77435 13.2683 3.68972 13.5069 3.65362 13.7551C3.61751 14.0032 3.63066 14.2561 3.69229 14.4992C3.75392 14.7422 3.86284 14.9708 4.01283 15.1717C4.16281 15.3727 4.35091 15.5422 4.5664 15.6704C4.78184 15.7988 5.02045 15.8834 5.2686 15.9195C5.51676 15.9556 5.76959 15.9425 6.01267 15.8808C6.25574 15.8192 6.48429 15.7103 6.68526 15.5603C6.88623 15.4103 7.05569 15.2222 7.18394 15.0067C12.3036 6.41133 27.336 5.61089 34.565 15.1807C34.7161 15.3809 34.9051 15.5493 35.1214 15.6764C35.3376 15.8035 35.5767 15.8867 35.8251 15.9213C36.0735 15.956 36.3263 15.9413 36.569 15.8782C36.8117 15.8151 37.0396 15.7048 37.2397 15.5536C37.4399 15.4025 37.6083 15.2134 37.7354 14.9972C37.8624 14.781 37.9457 14.5419 37.9803 14.2935C38.0149 14.0451 38.0003 13.7923 37.9372 13.5496C37.8741 13.3069 37.7638 13.079 37.6126 12.8789C33.2089 7.04923 26.4533 4.28331 19.9634 4.37995Z" fill="#40A4ED"/>
</svg>
