<svg width="48" height="48" viewBox="0 0 48 48" fill="none" xmlns="http://www.w3.org/2000/svg">
<path d="M36.2496 12.0586C36.8169 11.4913 36.8169 10.5604 36.2496 9.99316L34.1987 7.94225C33.6314 7.37498 32.7005 7.37498 32.1332 7.94225L31.1296 8.94589C30.4023 9.67316 29.2969 9.86225 28.3514 9.42589C28.046 9.28044 27.726 9.14953 27.406 9.03316C26.446 8.66953 25.7914 7.76771 25.7914 6.73498V5.30953C25.7914 4.50953 25.1369 3.85498 24.3369 3.85498H21.4278C20.6278 3.85498 19.9732 4.50953 19.9732 5.30953V6.73498C19.9732 7.76771 19.3187 8.66953 18.3587 9.03316C18.0387 9.14953 17.7187 9.28044 17.4132 9.42589C16.4678 9.86225 15.3623 9.67316 14.6351 8.94589L13.6314 7.94225C13.0641 7.37498 12.1332 7.37498 11.5659 7.94225L9.51501 9.99316C8.94773 10.5604 8.94773 11.4913 9.51501 12.0586L10.5186 13.0623C11.2459 13.7895 11.435 14.895 10.9986 15.8405C10.8532 16.1459 10.7223 16.4659 10.6059 16.7859C10.2423 17.7459 9.34046 18.4005 8.30773 18.4005H6.88228C6.08228 18.4005 5.42773 19.055 5.42773 19.855V22.7641C5.42773 23.5641 6.08228 24.2187 6.88228 24.2187H8.30773C9.34046 24.2187 10.2423 24.8732 10.6059 25.8332C10.7223 26.1532 10.8532 26.4732 10.9986 26.7787C11.435 27.7241 11.2459 28.8296 10.5186 29.5568L9.51501 30.5605C8.94773 31.1278 8.94773 32.0587 9.51501 32.6259L11.3768 34.4878C12.5841 33.1641 13.8205 32.2187 14.8823 32.2187C15.1441 32.2187 15.3769 32.2478 15.6096 32.2768C16.5114 32.4368 19.9587 34.8368 19.9732 34.8514C20.9041 35.3459 22.0241 35.5641 23.6096 35.1278C25.835 34.5168 27.886 29.9641 30.126 25.6732C31.915 22.2114 33.835 18.9241 36.0896 17.9641C35.6678 17.6878 35.3478 17.2805 35.1587 16.7859C35.0423 16.4659 34.9114 16.1459 34.766 15.8405C34.3296 14.895 34.5187 13.7895 35.246 13.0623L36.2496 12.0586ZM22.8823 25.6732C20.4678 25.6732 18.5187 23.7241 18.5187 21.3096C18.5187 18.895 20.4678 16.9459 22.8823 16.9459C25.2969 16.9459 27.246 18.895 27.246 21.3096C27.246 23.7241 25.2969 25.6732 22.8823 25.6732Z" fill="#008DD1"/>
<path d="M40.3369 18.4005V18.8951C40.1187 18.706 39.9007 18.546 39.668 18.4005H40.3369Z" fill="#008DD1"/>
<path d="M37.4288 16.9461C35.6731 16.9461 34.2104 18.1104 32.9459 19.6734C31.6813 21.2363 30.5554 23.2678 29.48 25.3382C28.354 27.4953 27.2823 29.6988 26.2413 31.4007C25.1998 33.1035 24.1404 34.2278 23.4175 34.4262C23.4165 34.4262 23.4155 34.4262 23.4145 34.4262C21.53 34.9534 20.5987 34.4804 19.5566 33.7416C18.5145 33.0028 17.4506 31.8723 15.7384 31.5626C15.7252 31.5594 15.712 31.5565 15.6986 31.554C15.4659 31.5249 15.199 31.4915 14.8833 31.4915C13.657 31.4915 12.5793 32.2761 11.5396 33.287C10.4998 34.2978 9.49929 35.6017 8.61058 36.8978C6.83315 39.4898 5.5083 42.0682 5.5083 42.0682C5.46455 42.1533 5.438 42.2461 5.43017 42.3414C5.42235 42.4367 5.43339 42.5326 5.46269 42.6237C5.49198 42.7147 5.53893 42.7991 5.60087 42.8719C5.66281 42.9448 5.73851 43.0048 5.82364 43.0483C5.99511 43.1358 6.19426 43.1517 6.37744 43.0926C6.56063 43.0335 6.71291 42.9042 6.80092 42.733C6.80092 42.733 8.09595 40.2204 9.80944 37.7216C10.6662 36.4722 11.6299 35.2307 12.5538 34.3324C13.4777 33.4342 14.3641 32.946 14.8833 32.946C15.0801 32.946 15.2689 32.9674 15.4856 32.9943C16.6648 33.2101 17.5235 34.0838 18.7157 34.929C19.9099 35.7756 21.5311 36.4632 23.8066 35.8267C25.3071 35.4129 26.3833 33.9566 27.4827 32.1591C28.583 30.3601 29.6564 28.1412 30.7697 26.0085C30.7706 26.0085 30.7716 26.0085 30.7726 26.0085C31.8353 23.9625 32.9374 21.996 34.0766 20.5881C35.2157 19.1801 36.3336 18.4006 37.4288 18.4006C38.2773 18.4006 39.1687 18.8367 40.0453 19.5881C40.9219 20.3395 41.7561 21.3844 42.4601 22.4404C43.8681 24.5524 44.7555 26.679 44.7555 26.679C44.7922 26.7673 44.846 26.8475 44.9137 26.9149C44.9814 26.9824 45.0617 27.0359 45.1501 27.0723C45.2385 27.1087 45.3332 27.1274 45.4288 27.1272C45.5244 27.1269 45.619 27.1079 45.7072 27.071C45.7955 27.0344 45.8757 26.9806 45.9432 26.9129C46.0107 26.8452 46.0642 26.7649 46.1006 26.6765C46.137 26.5881 46.1556 26.4934 46.1554 26.3978C46.1552 26.3022 46.1361 26.2076 46.0993 26.1193C46.0993 26.1193 45.1714 23.8852 43.6703 21.6335C42.9198 20.5077 42.0238 19.3708 40.9913 18.4858C39.9588 17.6008 38.7622 16.946 37.4288 16.946L37.4288 16.9461Z" fill="#13181B"/>
<path d="M37.4288 16.946C36.8572 16.946 36.3122 17.0739 35.8009 17.2955C33.1337 18.4324 31.2798 21.8553 29.4799 25.3381C28.3539 27.4952 27.2822 29.6987 26.2413 31.4006C25.1997 33.1034 24.1404 34.2277 23.4174 34.4262C21.9762 34.8228 21.1109 34.633 20.3151 34.2103C20.3132 34.2084 20.3113 34.2065 20.3094 34.2046C19.6547 33.8646 19.0446 33.347 18.3492 32.8324C17.648 32.2989 16.8101 31.7503 15.7356 31.5597C15.7233 31.5575 15.711 31.5556 15.6987 31.554C15.4659 31.5249 15.199 31.4915 14.8833 31.4915C13.3898 31.4915 12.0984 32.6183 10.8407 33.9972C10.8388 33.9991 10.8369 34.001 10.835 34.0029C8.03133 37.1248 5.5083 42.0682 5.5083 42.0682C5.46455 42.1533 5.438 42.2461 5.43017 42.3414C5.42235 42.4367 5.43339 42.5326 5.46269 42.6237C5.49198 42.7147 5.53893 42.7991 5.60087 42.872C5.66281 42.9448 5.73851 43.0048 5.82364 43.0483C5.99511 43.1358 6.19426 43.1517 6.37744 43.0926C6.56063 43.0335 6.71291 42.9042 6.80092 42.733C6.80092 42.733 9.33926 37.8453 11.9174 34.9745C13.073 33.7086 14.2538 32.9461 14.8833 32.9461C15.081 32.9461 15.2704 32.9673 15.4884 32.9943C16.2149 33.1248 16.8334 33.5082 17.4685 33.9915C17.4714 33.9934 17.4742 33.9953 17.4771 33.9972C18.1146 34.4684 18.7812 35.0507 19.6334 35.4943C19.6341 35.4947 19.6354 35.4939 19.6363 35.4943C19.6376 35.495 19.6379 35.4965 19.6392 35.4972C20.7045 36.0616 22.077 36.3049 23.804 35.8296C25.3064 35.4172 26.3826 33.9581 27.4829 32.1592C28.5832 30.3602 29.6566 28.1412 30.7699 26.0086C30.7708 26.0076 30.7718 26.0067 30.7728 26.0057C32.5506 22.5656 34.5342 19.4174 36.375 18.6335C36.376 18.6326 36.377 18.6316 36.378 18.6306C36.7394 18.474 37.0697 18.4005 37.4291 18.4005C38.0262 18.4005 38.6488 18.6158 39.2785 19.0142C39.2804 19.0151 39.2823 19.0161 39.2842 19.0171C39.4869 19.1438 39.6706 19.2783 39.8609 19.4432C39.8674 19.449 39.8741 19.4547 39.8808 19.4602C42.5713 21.6339 44.7586 26.6818 44.7586 26.6818C44.8333 26.8589 44.975 26.9992 45.1528 27.0722C45.3306 27.1451 45.53 27.1447 45.7075 27.071C45.7958 27.0344 45.8759 26.9806 45.9434 26.9129C46.0109 26.8452 46.0644 26.7649 46.1008 26.6765C46.1372 26.5881 46.1559 26.4934 46.1556 26.3978C46.1554 26.3022 46.1364 26.2076 46.0995 26.1193C46.0995 26.1193 44.0128 20.9412 40.8041 18.3409C40.5616 18.1315 40.3156 17.9489 40.0569 17.787C39.2612 17.2835 38.3738 16.946 37.4291 16.946L37.4288 16.946Z" fill="#13181B"/>
<path d="M37.4285 43.1277C34.214 43.1277 31.6104 40.7132 31.6104 37.7314C31.6104 33.2223 37.4285 24.2186 37.4285 24.2186C37.4285 24.2186 43.2467 33.2223 43.2467 37.7314C43.2467 40.7132 40.6431 43.1277 37.4285 43.1277Z" fill="#005984"/>
</svg>
