<svg width="48" height="48" viewBox="0 0 48 48" fill="none" xmlns="http://www.w3.org/2000/svg">
<path fill-rule="evenodd" clip-rule="evenodd" d="M42.2364 24.9015C41.7174 34.8726 33.4681 42.7978 23.3678 42.7978C13.1876 42.7978 4.88786 34.7467 4.48828 24.6645C6.70847 27.1418 14.322 34.8123 23.4696 34.8123C32.3425 34.8123 39.7721 27.5955 42.2364 24.9015ZM42.2364 22.905C39.7721 20.2109 32.3425 12.9941 23.4696 12.9941C14.322 12.9941 6.70847 20.6647 4.48828 23.1418C4.88787 13.0596 13.1876 5.00867 23.3678 5.00867C33.4681 5.00867 41.7173 12.9338 42.2364 22.905Z" fill="#005984"/>
<path d="M23.4687 12.267C12.0747 12.267 3.26695 23.4488 3.26695 23.4488C3.16368 23.5778 3.10742 23.7381 3.10742 23.9033C3.10742 24.0686 3.16368 24.2289 3.26695 24.3579C3.26695 24.3579 12.0748 35.5397 23.4687 35.5397C34.8626 35.5397 43.6732 24.3579 43.6732 24.3579C43.7765 24.2289 43.8327 24.0686 43.8327 23.9033C43.8327 23.7381 43.7765 23.5778 43.6732 23.4488C43.6732 23.4488 34.8626 12.267 23.4687 12.267ZM23.4687 13.7215C33.4478 13.7215 41.365 23.071 42.0596 23.9033C41.365 24.7356 33.4478 34.0852 23.4687 34.0852C13.4896 34.0852 5.57536 24.7358 4.88058 23.9033C5.57536 23.0708 13.4896 13.7215 23.4687 13.7215Z" fill="#13181B"/>
<path d="M23.3684 31.1759C27.385 31.1759 30.6412 27.9198 30.6412 23.9032C30.6412 19.8865 27.385 16.6305 23.3684 16.6305C19.3519 16.6305 16.0957 19.8865 16.0957 23.9032C16.0957 27.9198 19.3519 31.1759 23.3684 31.1759Z" fill="#008DD1"/>
</svg>
