<svg width="48" height="48" viewBox="0 0 48 48" fill="none" xmlns="http://www.w3.org/2000/svg">
<path fill-rule="evenodd" clip-rule="evenodd" d="M26.709 17.356C25.9035 17.7103 25.013 17.907 24.0765 17.907C23.1401 17.907 22.2495 17.7103 21.444 17.356C14.5593 18.2885 9.15839 22.8173 8.22092 28.5042C7.94732 28.3663 7.69477 28.1847 7.47402 27.964C6.92847 27.4184 6.62198 26.6785 6.62198 25.907C6.62198 25.1037 5.97075 24.4525 5.16744 24.4525C4.36412 24.4525 3.71289 25.1037 3.71289 25.907C3.71289 27.45 4.32587 28.9298 5.41699 30.021C6.17707 30.781 7.12579 31.3092 8.15311 31.5597C8.50761 34.5272 10.0732 37.2042 12.4402 39.2555V43.3615C12.4402 44.1647 13.0914 44.8161 13.8947 44.8161H18.2584C19.0617 44.8161 19.7129 44.1647 19.7129 43.3615V42.8687C21.1001 43.1898 22.5638 43.3615 24.0765 43.3615C25.5893 43.3615 27.053 43.1898 28.4402 42.8687V43.3615C28.4402 44.1647 29.0914 44.8161 29.8947 44.8161H34.2584C35.0617 44.8161 35.7129 44.1647 35.7129 43.3615V39.2555C37.2282 37.9422 38.4152 36.3725 39.1661 34.6343H41.5311C42.3344 34.6343 42.9856 33.9829 42.9856 33.1797V27.3615C42.9856 26.5582 42.3344 25.907 41.5311 25.907H39.1661C38.4152 24.1687 37.2282 22.5989 35.7129 21.2856V16.9325C35.7129 15.3324 34.7965 14.9688 33.6911 16.1179L31.2915 18.5831C29.8726 17.9954 28.332 17.5758 26.709 17.356Z" fill="#008DD1"/>
<path d="M24.236 28.9906C24.5433 28.5565 24.9347 28.1888 25.3869 27.909C25.8392 27.6291 26.343 27.4429 26.8687 27.3615C27.2137 27.3577 27.5561 27.4221 27.8761 27.551C28.1962 27.68 28.4876 27.8709 28.7337 28.1129C28.9797 28.3548 29.1754 28.6431 29.3097 28.9609C29.444 29.2789 29.5141 29.6201 29.516 29.9651C29.516 32.5688 26.8687 32.8742 24.236 37.1215C21.5887 32.8888 18.9414 32.5688 18.9414 29.9651C18.949 29.2694 19.2317 28.6051 19.7279 28.1171C20.2239 27.6293 20.8928 27.3577 21.5887 27.3615C22.116 27.4435 22.6218 27.6297 23.0764 27.9094C23.5309 28.1891 23.9251 28.5567 24.236 28.9906Z" fill="#005984"/>
<path fill-rule="evenodd" clip-rule="evenodd" d="M24.0908 21.7255C22.4345 21.7255 20.8035 22.1331 19.342 22.9123C18.9875 23.1013 18.5471 22.967 18.3581 22.6127C18.1692 22.2582 18.3033 21.8176 18.6577 21.6287C20.3299 20.7373 22.1958 20.271 24.0908 20.271C25.9857 20.271 27.8516 20.7373 29.5238 21.6287C29.8783 21.8176 30.0124 22.2582 29.8234 22.6127C29.6345 22.967 29.1939 23.1013 28.8396 22.9123C27.3779 22.1331 25.7471 21.7255 24.0908 21.7255Z" fill="#13181B"/>
<path fill-rule="evenodd" clip-rule="evenodd" d="M24.0764 5.54329C20.8632 5.54329 18.2583 8.14818 18.2583 11.3615C18.2583 14.5748 20.8632 17.1796 24.0764 17.1796C27.2897 17.1796 29.8946 14.5748 29.8946 11.3615C29.8946 8.14818 27.2897 5.54329 24.0764 5.54329ZM16.8037 11.3615C16.8037 7.34485 20.0599 4.08875 24.0764 4.08875C28.093 4.08875 31.3492 7.34485 31.3492 11.3615C31.3492 15.3781 28.093 18.6341 24.0764 18.6341C20.0599 18.6341 16.8037 15.3781 16.8037 11.3615Z" fill="#13181B"/>
</svg>
