<svg width="48" height="48" viewBox="0 0 48 48" fill="none" xmlns="http://www.w3.org/2000/svg">
<path fill-rule="evenodd" clip-rule="evenodd" d="M11.6673 36.6391C12.9416 35.6177 14.4016 34.9118 15.732 34.2686C17.9722 33.1855 19.8449 32.2801 19.8449 30.345V29.19C18.1151 27.2881 17.1996 24.7841 17.2949 22.215C17.2335 21.2968 17.3613 20.3757 17.6704 19.5089C17.9795 18.6421 18.4634 17.848 19.0921 17.1759C19.7207 16.5038 20.4807 15.9679 21.3249 15.6016C22.1692 15.2353 23.0796 15.0462 23.9999 15.0462C24.9202 15.0462 25.8307 15.2353 26.6749 15.6016C27.5191 15.9679 28.2791 16.5038 28.9078 17.1759C29.5364 17.848 30.0203 18.6421 30.3294 19.5089C30.6386 20.3757 30.7664 21.2968 30.7049 22.215C30.8052 24.7776 29.8948 27.2771 28.1699 29.175V30.345C28.1699 32.2801 30.0402 33.1855 32.2775 34.2686C33.6054 34.9114 35.0626 35.6169 36.3347 36.6373C40.4611 33.1374 43.0799 27.9146 43.0799 22.08C43.0799 11.5424 34.5375 3 23.9999 3C13.4623 3 4.91992 11.5424 4.91992 22.08C4.91992 27.9156 7.53969 33.1393 11.6673 36.6391Z" fill="#005984"/>
<path fill-rule="evenodd" clip-rule="evenodd" d="M16.6446 33.8221C18.4586 32.9127 19.845 32.0099 19.845 30.345V29.19C18.1152 27.2881 17.1997 24.7841 17.295 22.215C17.2335 21.2968 17.3613 20.3757 17.6705 19.5089C17.9796 18.6421 18.4635 17.848 19.0921 17.1759C19.7208 16.5038 20.4808 15.9679 21.325 15.6016C22.1692 15.2353 23.0797 15.0462 24 15.0462C24.9203 15.0462 25.8308 15.2353 26.675 15.6016C27.5192 15.9679 28.2792 16.5038 28.9079 17.1759C29.5365 17.848 30.0204 18.6421 30.3295 19.5089C30.6387 20.3757 30.7665 21.2968 30.705 22.215C30.8052 24.7776 29.8949 27.2771 28.17 29.175V30.345C28.17 32.0081 29.5515 32.9106 31.3601 33.8191C35.0564 31.4106 37.5 27.2407 37.5 22.5C37.5 15.0442 31.4558 9 24 9C16.5442 9 10.5 15.0442 10.5 22.5C10.5 27.2427 12.9457 31.4142 16.6446 33.8221Z" fill="#008DD1"/>
<path fill-rule="evenodd" clip-rule="evenodd" d="M19.845 28.485C20.2592 28.485 20.595 28.8208 20.595 29.235V30.345C20.595 31.9303 19.6066 32.9331 18.4383 33.6828C17.8543 34.0575 17.185 34.3959 16.5049 34.7274C16.3542 34.8009 16.203 34.874 16.0512 34.9474C15.5062 35.2109 14.9547 35.4776 14.4003 35.7731C12.9877 36.526 11.6493 37.4198 10.6586 38.7219C9.67997 40.0082 9 41.7471 9 44.265C9 44.6792 8.66421 45.015 8.25 45.015C7.83579 45.015 7.5 44.6792 7.5 44.265C7.5 41.4503 8.2694 39.3849 9.46483 37.8137C10.6482 36.2583 12.2086 35.2415 13.6947 34.4494C14.2779 34.1385 14.8642 33.8551 15.4128 33.5899C15.5607 33.5184 15.706 33.4482 15.8476 33.3791C16.5264 33.0483 17.1253 32.7431 17.6282 32.4203C18.634 31.775 19.095 31.1672 19.095 30.345V29.235C19.095 28.8208 19.4308 28.485 19.845 28.485Z" fill="#13181B"/>
<path fill-rule="evenodd" clip-rule="evenodd" d="M28.1699 28.485C28.5841 28.485 28.9199 28.8208 28.9199 29.235V30.345C28.9199 31.1677 29.3806 31.7754 30.3847 32.4206C30.887 32.7433 31.485 33.0484 32.1629 33.3793C32.3044 33.4483 32.4494 33.5185 32.5972 33.5901C33.145 33.8553 33.7306 34.1387 34.313 34.4496C35.7974 35.2417 37.3558 36.2586 38.5377 37.814C39.7316 39.3853 40.4999 41.4506 40.4999 44.265C40.4999 44.6792 40.1641 45.015 39.7499 45.015C39.3357 45.015 38.9999 44.6792 38.9999 44.265C38.9999 41.7469 38.3208 40.0078 37.3434 38.7216C36.354 37.4195 35.0174 36.5257 33.6068 35.7729C33.0531 35.4774 32.5024 35.2108 31.958 34.9472C31.8065 34.8739 31.6554 34.8007 31.5049 34.7273C30.8257 34.3958 30.1572 34.0573 29.5739 33.6825C28.4067 32.9327 27.4199 31.9298 27.4199 30.345V29.235C27.4199 28.8208 27.7557 28.485 28.1699 28.485Z" fill="#13181B"/>
<path fill-rule="evenodd" clip-rule="evenodd" d="M23.9995 14.9999L23.9859 14.2501C22.9658 14.2686 21.9599 14.4927 21.0284 14.9088C20.0969 15.325 19.2589 15.9246 18.5643 16.672C17.8698 17.4193 17.3331 18.299 16.9863 19.2585C16.6417 20.2117 16.4915 21.2243 16.5446 22.2364C16.5676 27.7059 19.7235 31.7849 23.9995 31.7849C28.2733 31.7849 31.446 27.7092 31.4545 22.237C31.5119 21.2243 31.3649 20.2103 31.0222 19.2555C30.677 18.2935 30.1402 17.4115 29.4445 16.6629C28.7487 15.9142 27.9084 15.3144 26.9743 14.8997C26.0402 14.485 25.0317 14.2639 24.0098 14.25L23.9995 14.9999ZM24.0012 15.75C23.1869 15.7665 22.384 15.9461 21.6402 16.2784C20.8928 16.6123 20.2204 17.0934 19.6631 17.6931C19.1059 18.2927 18.6752 18.9986 18.3969 19.7684C18.1186 20.5383 17.9984 21.3563 18.0434 22.1737C18.0441 22.1867 18.0445 22.1997 18.0445 22.2128C18.0589 27.2335 20.8706 30.2849 23.9995 30.2849C27.13 30.2849 29.9545 27.2316 29.9545 22.2149C29.9545 22.2 29.955 22.1851 29.9559 22.1703C30.0047 21.3525 29.8871 20.5333 29.6104 19.7622C29.3336 18.9911 28.9034 18.2841 28.3457 17.684C27.788 17.0839 27.1144 16.6031 26.3656 16.2706C25.6205 15.9398 24.8163 15.7628 24.0012 15.75Z" fill="#13181B"/>
</svg>
