<svg width="16" height="16" viewBox="0 0 16 16" fill="none" xmlns="http://www.w3.org/2000/svg">
<path d="M8.00024 13.3334L2.88683 7.91512C2.43743 7.45889 2.14081 6.8705 2.03906 6.23338C1.9373 5.59627 2.03557 4.94277 2.31992 4.36559C2.53434 3.93002 2.84756 3.55245 3.23378 3.26399C3.61999 2.97552 4.06814 2.78442 4.5413 2.70642C5.01447 2.62843 5.4991 2.66577 5.95527 2.81538C6.41144 2.96499 6.8261 3.22258 7.16507 3.56693L8.00024 4.41489L8.8354 3.56693C9.17437 3.22258 9.58903 2.96499 10.0452 2.81538C10.5014 2.66577 10.986 2.62843 11.4592 2.70642C11.9323 2.78442 12.3805 2.97552 12.7667 3.26399C13.1529 3.55245 13.4661 3.93002 13.6805 4.36559C13.9645 4.94255 14.0626 5.59566 13.961 6.23241C13.8593 6.86916 13.5631 7.45729 13.1142 7.91349L8.00024 13.3334Z" fill="#0066B1"/>
</svg>
