<svg width="139" height="28" viewBox="0 0 139 28" fill="none" xmlns="http://www.w3.org/2000/svg">
<path d="M22.213 4.50647H19.7764C19.8431 5.76651 19.8598 5.90003 19.8598 6.42574C19.8765 6.85132 19.8932 8.91245 19.8932 9.35472V10.4395L19.8765 13.1766C19.8765 13.8024 19.7597 15.8636 19.743 16.1723H22.1379C21.971 14.9456 21.971 13.502 21.971 12.1585C21.971 10.3895 21.9877 6.27554 22.213 4.50647Z" fill="black"/>
<path d="M25.0001 4.50647H27.4201C27.2365 5.76651 27.2365 8.71218 27.2365 10.4312C27.2365 12.968 27.2699 14.8038 27.4034 16.1807H24.9834C25.167 14.1529 25.167 11.3491 25.167 8.43681C25.167 7.36869 25.167 6.15871 25.0001 4.50647Z" fill="black"/>
<path d="M36.0485 4.37296C37.442 4.37296 38.6687 4.61495 40.0289 5.22411L39.5198 6.89304H39.3529C39.1527 6.48416 38.5519 5.29087 36.1069 5.29087C33.2697 5.29087 31.751 7.16007 31.751 10.3811C31.751 11.6745 31.9929 12.9012 32.7857 13.9359C33.3949 14.737 34.3211 15.4881 35.8649 15.4881C36.666 15.4881 37.6006 15.3212 38.2848 14.8789C38.3349 13.6856 38.3349 13.5521 38.3349 13.3268C38.3349 12.4923 38.2848 11.6578 38.2348 10.8234H40.5129C40.4127 11.4325 40.3793 13.2183 40.3793 13.6856C40.3793 14.3281 40.396 14.7537 40.4294 15.2377C38.9858 16.0054 37.1249 16.431 35.4977 16.431C32.1765 16.431 29.4228 14.3699 29.4228 10.548C29.4228 7.1267 31.5173 4.38964 36.0568 4.38964L36.0485 4.37296Z" fill="black"/>
<path d="M50.7267 10.4395C49.8088 10.4062 48.8909 10.3728 47.973 10.3728C47.005 10.3728 46.037 10.4062 45.0607 10.4395V12.1418C45.0607 14.3365 45.1275 15.1042 45.2109 16.1723H42.8327C42.9662 13.5855 42.9829 11.0153 42.9829 8.42846C42.9829 7.10166 42.9328 5.80824 42.816 4.49813H45.2109C45.1275 5.43273 45.0607 6.16706 45.0607 9.34638C45.9118 9.37976 46.7797 9.41314 47.6309 9.41314C48.6656 9.41314 49.692 9.37976 50.7267 9.34638C50.7267 8.90411 50.71 6.84298 50.6933 6.4174C50.6933 5.89169 50.6767 5.74983 50.6099 4.49813H53.0465C52.8296 6.2672 52.8045 10.3811 52.8045 12.1502C52.8045 13.4937 52.8045 14.9373 52.9714 16.164H50.5765C50.5932 15.8552 50.71 13.8024 50.71 13.1682L50.7267 10.4312V10.4395Z" fill="black"/>
<path d="M57.9949 5.57459C59.1215 7.86937 59.5971 8.7706 61.2076 11.6662L62.1255 13.3017L62.7514 12.1919C64.3536 9.3881 65.0962 7.96951 66.8319 4.49813H67.5663L67.6998 5.90838C67.8834 7.91944 68.1087 9.78864 68.384 11.8331C68.5175 12.8511 68.8764 15.3212 69.0683 16.1723H66.6901L66.64 15.5465C66.6066 15.2043 66.5232 13.6939 66.4898 13.3852C66.4063 12.6008 65.9975 9.1628 65.9474 8.4535C64.8042 10.3895 62.9016 13.8608 61.9002 16.1807H61.2327C60.5901 14.8872 60.1645 14.1696 58.8878 11.7079C58.6291 11.2156 57.4275 9.071 57.1855 8.62874C56.8767 11.007 56.593 13.6272 56.4678 16.1807H54.9742L55.0743 15.6549C55.4832 13.5437 56.5012 6.48416 56.7098 4.51482H57.4776L58.0033 5.58293L57.9949 5.57459Z" fill="black"/>
<path d="M77.5798 14.2864L76.8622 12.484C76.1279 12.4506 75.4186 12.4172 74.6842 12.4172C74 12.4172 73.3241 12.4506 72.6398 12.484C72.0974 13.7941 71.555 15.2043 71.2796 16.1723H69.6941L71.6635 11.783C73.3825 7.93613 74.3671 5.72479 74.776 4.33123H75.8859C76.7036 6.6594 77.7217 9.04597 78.3392 10.4729C78.9817 11.9499 80.1083 14.5201 80.876 16.1723H78.2891L77.5715 14.2864H77.5798ZM74.776 7.24352L73.0403 11.4325C73.6328 11.4492 74.2169 11.4993 74.8094 11.4993C75.3351 11.4993 75.8441 11.4659 76.3782 11.4325L74.776 7.24352Z" fill="black"/>
<path d="M87.4433 11.0735C87.702 11.4323 88.0691 11.9914 88.3278 12.3502C89.6713 14.2361 90.1303 14.8369 91.2067 16.1804H88.3111C88.0525 15.7882 87.6853 15.1624 87.4266 14.7702C86.5588 13.4267 85.5073 11.933 84.5894 10.6396H84.1805V13.0595C84.1805 13.5519 84.2473 15.7465 84.2473 16.1888H81.9358C82.0693 12.8342 82.086 12.4587 82.086 9.17926C82.086 6.95123 82.086 6.70923 81.9692 4.51459H86.4753C87.5852 4.51459 88.4113 4.6481 89.1456 5.34905C89.6546 5.84139 89.93 6.54234 89.93 7.25164C89.93 9.13753 88.5198 10.1139 86.9677 10.3976L87.4433 11.0818V11.0735ZM84.1805 9.83014C84.506 9.84683 84.9149 9.88021 85.3571 9.88021C87.0594 9.88021 87.6853 8.63685 87.6853 7.53536C87.6853 6.81772 87.5685 6.20855 86.9677 5.76629C86.5087 5.42416 85.9496 5.34071 85.3822 5.34071C85.0567 5.34071 84.4309 5.40747 84.1722 5.42416V9.83014H84.1805Z" fill="black"/>
<path d="M92.5502 4.50647H94.9284C94.8116 5.34094 94.8116 6.58429 94.7949 7.19345C94.7782 8.04461 94.7782 9.01259 94.7782 9.89713C96.0382 8.78729 96.7142 8.07799 97.6905 7.01822C98.4415 6.20044 99.3594 5.21577 99.8684 4.49813H101.804C100.937 5.23246 99.7433 6.36733 99.034 7.06828C98.1828 7.90275 97.9074 8.15309 96.6724 9.52162L97.5737 10.7149C98.4415 11.8581 100.895 15.0875 102.08 16.1723H99.1174C97.9074 14.47 96.5806 12.6008 94.7782 10.6064C94.7782 12.4756 94.7782 14.3699 94.9284 16.1723H92.5502C92.7004 13.2934 92.7004 13.1098 92.7004 8.42846C92.7004 6.4925 92.6837 6.20044 92.5502 4.49813V4.50647Z" fill="black"/>
<path d="M11.9908 4.50647C12.1076 5.81658 12.1577 7.11001 12.1577 8.43681C12.1577 8.53694 12.1577 8.63708 12.1577 8.73722C12.8169 8.86239 13.5095 8.98756 14.2355 9.10438C14.2355 6.13368 14.3023 5.41604 14.3857 4.50647H11.9908Z" fill="black"/>
<path d="M14.2354 10.7152C13.5178 10.6234 12.8252 10.5316 12.1576 10.4398C12.1493 12.3508 12.1076 14.2617 12.0074 16.181H14.3856C14.3022 15.1128 14.2354 14.3451 14.2354 12.1505V10.7235V10.7152Z" fill="black"/>
<path d="M50.5432 0.509025C42.7242 -0.00834475 34.0124 -0.108481 25.9848 0.225306C18.5664 0.525714 12.1828 1.16825 7.53478 2.08617C2.82004 3.01242 0.291606 4.12226 0.0245762 5.399C-0.133972 6.15002 0.475188 6.86766 1.83537 7.53523C4.78104 8.97886 11.1981 10.1721 19.8849 10.9148H19.9016V10.2472C13.0756 9.50457 8.16063 8.47818 5.6906 7.2682C4.9229 6.89269 4.03836 6.32526 4.16353 5.7161C4.53904 3.92199 12.6751 1.66893 29.6314 0.959637C36.449 0.675918 43.6672 0.700952 50.5182 1.03474C50.6684 1.03474 50.7852 0.926258 50.7935 0.784398C50.7935 0.642539 50.6934 0.517369 50.5432 0.509025Z" fill="#00A2E2"/>
<path d="M120.179 8.11128C120.179 10.7148 118.068 12.826 115.465 12.826C112.861 12.826 110.75 10.7148 110.75 8.11128C110.75 5.50774 112.861 3.39654 115.465 3.39654C118.068 3.39654 120.179 5.50774 120.179 8.11128Z" fill="white"/>
<path d="M137.528 1.64367L137.445 1.43505L137.236 1.51016C136.001 1.93573 135.283 2.0609 134.607 2.16939C133.998 2.26118 133.431 2.32793 132.504 2.33628C131.578 2.32793 131.011 2.26118 130.402 2.16939C129.717 2.0609 129.008 1.93573 127.773 1.51016L127.564 1.43505L127.481 1.64367C126.697 3.5546 126.738 6.19151 127.589 8.68657C128.574 11.5655 130.034 13.5682 132.171 14.9618L132.53 15.1871L132.905 14.9284C135.016 13.5348 136.46 11.5404 137.436 8.68657C138.287 6.19151 138.329 3.5546 137.545 1.64367H137.528Z" fill="white"/>
<path d="M115.481 9.28761C115.481 9.28761 115.431 9.29596 115.415 9.32099L113.921 11.6074C114.397 11.816 114.922 11.9412 115.481 11.9412C116.04 11.9412 116.566 11.8244 117.042 11.6074L115.548 9.32099C115.548 9.32099 115.506 9.28761 115.49 9.28761" fill="#00A2E2"/>
<path d="M114.021 7.41006L111.76 7.20145C111.693 7.49351 111.651 7.79392 111.651 8.11102C111.651 9.06231 112.002 9.9385 112.577 10.6061L114.163 7.5853C114.196 7.49351 114.188 7.42675 114.021 7.41006Z" fill="#00A2E2"/>
<path d="M114.422 4.439C113.696 4.64762 113.053 5.06485 112.577 5.62395H114.58C114.58 5.62395 114.639 5.57388 114.597 5.53216C114.38 5.29851 114.205 4.80617 114.43 4.43066" fill="#00A2E2"/>
<path d="M118.394 5.62457C117.918 5.06547 117.276 4.64824 116.55 4.43962C116.775 4.81513 116.591 5.30747 116.383 5.54112C116.341 5.58284 116.366 5.62457 116.399 5.63291H118.402L118.394 5.62457Z" fill="#00A2E2"/>
<path d="M116.942 7.41006C116.775 7.41841 116.766 7.49351 116.808 7.5853L118.394 10.6061C118.969 9.9385 119.32 9.06231 119.32 8.11102C119.32 7.80226 119.287 7.49351 119.211 7.20145L116.95 7.41006H116.942Z" fill="#00A2E2"/>
<path d="M118.227 11.6074L116.182 7.77723C116.032 7.45179 116.099 6.90938 116.658 6.83428L119.645 6.54222C119.829 7.02621 119.929 7.56027 119.929 8.11101C119.929 9.52961 119.262 10.7897 118.227 11.6074ZM117.926 11.8244C117.225 12.2833 116.391 12.5504 115.481 12.5504C114.572 12.5504 113.737 12.2833 113.036 11.816L115.198 8.57832C115.356 8.35301 115.598 8.3697 115.748 8.57832L117.91 11.816L117.926 11.8244ZM111.034 8.11101C111.034 7.56027 111.134 7.03455 111.317 6.54222L114.296 6.83428C114.856 6.90938 114.922 7.45179 114.772 7.77723L112.728 11.6074C111.693 10.7897 111.025 9.52126 111.025 8.10267M115.473 3.66331C117.259 3.66331 118.794 4.71473 119.504 6.22512H116.341C115.89 6.21677 115.69 5.94975 115.682 5.73278C115.673 5.4741 115.715 5.399 115.924 5.12362C116.149 4.81487 115.99 4.23074 115.481 4.2224C114.964 4.23074 114.805 4.81487 115.039 5.12362C115.248 5.399 115.289 5.4741 115.281 5.73278C115.281 5.94975 115.073 6.20843 114.622 6.22512H111.459C112.169 4.70639 113.704 3.66331 115.49 3.66331M119.061 4.49777V0.00834274H111.893V4.50612H107.395V11.6992H111.893V16.197H119.061V11.6992H123.559V4.50612H119.061V4.49777ZM121.765 16.1135C121.323 16.1135 121.006 15.7965 121.006 15.3542C121.006 14.9119 121.323 14.5948 121.765 14.5948C122.207 14.5948 122.516 14.9119 122.516 15.3542C122.516 15.7965 122.199 16.1135 121.765 16.1135ZM121.765 14.453C121.264 14.453 120.864 14.8618 120.864 15.3542C120.864 15.8465 121.273 16.2554 121.765 16.2554C122.257 16.2554 122.666 15.8549 122.666 15.3542C122.666 14.8535 122.266 14.453 121.765 14.453ZM121.74 15.2874H121.556V14.9536H121.84C121.965 14.9536 122.082 14.9703 122.082 15.1122C122.082 15.3041 121.882 15.2791 121.74 15.2791M122.232 15.1122C122.232 14.9286 122.14 14.8285 121.873 14.8285H121.431V15.8549H121.565V15.3959H121.79L122.082 15.8549H122.232L121.923 15.3959C122.107 15.3792 122.241 15.3041 122.241 15.1122" fill="#00A2E2"/>
<path d="M137.203 8.6117C136.343 11.1234 135.008 13.3431 132.505 14.9036C130.001 13.3515 128.666 11.1234 127.806 8.6117C127.047 6.38367 126.864 3.77179 127.698 1.73569C128.95 2.16961 129.684 2.29478 130.368 2.40326C131.002 2.5034 131.57 2.56181 132.505 2.5785C133.439 2.57016 134.007 2.5034 134.641 2.40326C135.325 2.29478 136.059 2.16961 137.311 1.73569C138.146 3.77179 137.962 6.38367 137.203 8.6117ZM138.012 0.00834467C136.268 0.884535 134.532 1.36018 132.496 1.36018C130.46 1.36018 128.724 0.87619 126.989 0C125.845 2.24472 125.662 5.89968 126.655 8.95383C127.606 11.8911 129.459 14.5698 132.505 16.2554C135.55 14.5698 137.403 11.8911 138.354 8.95383C139.347 5.89968 139.164 2.25306 138.02 0.00834467" fill="#00A2E2"/>
<path d="M137.044 16.1302C136.61 16.1302 136.301 15.8215 136.301 15.3876C136.301 14.9536 136.618 14.6449 137.044 14.6449C137.47 14.6449 137.787 14.9536 137.787 15.3876C137.787 15.8215 137.478 16.1302 137.044 16.1302ZM137.044 14.503C136.552 14.503 136.159 14.8952 136.159 15.3792C136.159 15.8632 136.56 16.2638 137.044 16.2638C137.528 16.2638 137.929 15.8716 137.929 15.3792C137.929 14.8869 137.536 14.503 137.044 14.503Z" fill="#00A2E2"/>
<path d="M137.019 15.3208H136.844V14.9954H137.119C137.245 14.9954 137.362 15.0121 137.362 15.1539C137.362 15.3458 137.161 15.3208 137.019 15.3208ZM137.495 15.1539C137.495 14.9703 137.403 14.8785 137.144 14.8785H136.71V15.8882H136.835V15.4376H137.053L137.336 15.8882H137.478L137.178 15.4376C137.353 15.4209 137.495 15.3542 137.495 15.1539Z" fill="#00A2E2"/>
<path d="M131.67 4.40572C131.754 4.46414 131.737 4.57262 131.862 4.54758C131.921 4.53924 131.962 4.49751 132.021 4.45579C132.021 4.45579 132.096 4.45579 132.113 4.46414C131.979 4.32228 131.712 4.32228 131.528 4.32228C131.57 4.40572 131.62 4.364 131.678 4.39738" fill="#00A2E2"/>
<path d="M134.299 4.6897C134.265 4.81487 134.232 4.81487 134.148 4.88997C133.981 5.04852 133.748 5.20707 133.531 5.41569C133.389 5.5492 133.256 5.63265 133.155 5.7912C133.13 5.82458 133.08 5.93306 133.08 5.93306C132.705 5.85795 132.321 5.84961 132.029 5.7912L132.012 5.46576C132.012 5.46576 132.388 5.46576 132.429 5.23211C132.429 5.22376 132.429 5.14866 132.379 5.12362C132.329 5.0819 132.212 5.04018 132.187 5.03183C132.471 5.07356 132.721 5.18204 133.013 5.30721C133.03 5.27383 132.988 5.16535 132.963 5.14031C132.922 5.09859 132.88 5.05687 132.772 5.04018C132.596 4.99011 132.162 4.94004 132.162 4.94004C132.162 4.94004 132.321 4.94004 132.53 4.92335C132.621 4.90666 132.713 4.87328 132.738 4.83991C132.755 4.78984 132.738 4.72308 132.663 4.65632C132.621 4.6146 132.58 4.56453 132.546 4.52281C132.504 4.4644 132.446 4.34757 132.371 4.28081C132.279 4.17233 131.987 4.05551 131.987 4.05551C131.987 4.05551 131.962 3.86358 132.012 3.77179C132.046 3.70503 132.204 3.69669 132.254 3.72172C132.471 3.83855 132.713 3.97206 132.997 4.02213C133.055 4.06385 133.055 4.08054 133.08 4.16399C133.122 4.35591 133.047 4.63963 133.08 4.77315C133.097 4.81487 133.139 4.81487 133.172 4.79818C133.439 4.65632 133.623 4.40598 133.89 4.28916C134.015 4.23909 134.382 4.41433 134.299 4.68136M133.105 8.36136C133.105 8.36136 133.139 7.79392 133.139 7.51854C133.289 7.46013 133.322 7.30993 133.264 7.1931C133.23 7.12634 133.122 7.07628 133.055 7.05959C132.738 6.98448 132.454 6.9678 132.129 6.93442C131.845 6.90104 131.62 6.86766 131.361 6.8009C130.827 6.66739 130.377 6.41705 130.143 5.93306C129.851 5.33224 130.11 4.58957 130.685 4.28916C131.119 4.06385 131.612 4.10557 132.046 4.27247C132.196 4.33088 132.279 4.4644 132.371 4.58957C132.413 4.64798 132.479 4.67301 132.513 4.73142C132.538 4.7648 132.488 4.78149 132.463 4.78984C132.363 4.81487 132.046 4.82322 131.937 4.80653C131.804 4.78984 131.587 4.79818 131.453 4.82322C131.587 4.89832 131.737 4.99845 131.879 5.04852C131.962 5.0819 132.029 5.0819 132.104 5.11528C132.137 5.13197 132.229 5.157 132.229 5.19873C132.221 5.24045 132.146 5.25714 132.087 5.27383C131.962 5.30721 131.795 5.31555 131.637 5.27383C131.386 5.21542 131.269 5.07356 131.111 5.157C131.011 5.21542 131.002 5.35727 131.036 5.49913C131.094 5.72444 131.32 5.81623 131.52 5.87464C132.204 6.09161 132.93 5.96644 133.598 6.31691C133.856 6.45043 134.148 6.71746 134.198 7.00117C134.424 8.19446 133.08 8.33632 133.08 8.33632M132.004 7.14303C132.004 7.14303 132.137 7.15972 132.471 7.17641C132.721 7.1931 132.897 7.2682 132.897 7.2682L132.863 8.46984C132.596 8.41977 132.421 8.38639 132.171 8.36136C132.087 7.92743 131.987 7.77723 131.812 7.46013C131.77 7.38503 131.812 7.35999 131.812 7.34331C131.837 7.30158 132.012 7.25986 132.012 7.25986V7.15972L132.004 7.14303ZM133.831 9.76326C133.781 9.95519 133.656 10.1137 133.456 10.2389C133.239 10.3641 133.013 10.3724 133.013 10.3724L133.03 9.71319C133.03 9.71319 133.08 9.70485 133.114 9.66312C133.147 9.6214 133.155 9.59637 133.147 9.53795C133.147 9.50457 133.114 9.45451 133.055 9.42947C132.988 9.40444 132.888 9.38775 132.847 9.38775C132.521 9.34603 132.221 9.31265 131.904 9.26258C131.328 9.17079 130.919 8.837 130.952 8.28625C130.977 7.91909 131.361 7.80226 131.637 7.68544C131.728 7.84399 131.804 8.01088 131.837 8.10267C131.887 8.25287 131.92 8.34467 131.92 8.34467C131.92 8.34467 131.795 8.3697 131.812 8.46984C131.82 8.56163 131.92 8.59501 131.979 8.60335C132.379 8.66176 132.913 8.72852 133.197 8.82031C133.389 8.88707 133.573 8.99555 133.673 9.13741C133.831 9.36271 133.873 9.53795 133.815 9.76326M132.229 9.52961C132.488 9.56299 132.588 9.57133 132.813 9.59637L132.788 10.6812L132.538 10.5477L132.288 10.4308L132.229 9.53795V9.52961ZM133.239 12.1081C133.097 12.2249 132.922 12.2667 132.922 12.2667L132.938 11.7994C132.938 11.7994 132.988 11.7493 132.972 11.6992C132.947 11.6074 132.621 11.3821 132.438 11.3154C132.254 11.2486 132.012 11.1735 131.845 11.0984C131.445 10.9232 131.303 10.5727 131.461 10.1888C131.52 10.047 131.678 9.95519 131.77 9.89677C131.862 9.83836 132.004 9.79664 132.004 9.79664L132.046 10.339C132.046 10.339 131.995 10.3557 131.979 10.4058C131.945 10.4976 132.037 10.556 132.062 10.5643C132.321 10.6812 132.705 10.8314 132.98 10.9983C133.339 11.2069 133.456 11.3654 133.456 11.6158C133.456 11.8411 133.356 11.9913 133.222 12.0998M132.713 13.2764C132.713 13.3598 132.68 13.4266 132.513 13.4349C132.379 13.4349 132.321 13.3932 132.313 13.2513C132.288 12.6255 132.262 11.4489 132.262 11.4489C132.262 11.4489 132.438 11.4989 132.521 11.549C132.546 11.5657 132.638 11.6241 132.721 11.7076C132.738 11.7326 132.755 11.7409 132.746 11.7743C132.738 12.2333 132.705 13.0761 132.705 13.2764M132.012 12.759C131.987 12.9259 132.054 12.9926 132.037 13.0677C132.012 13.1929 131.929 13.1595 131.879 13.0677C131.812 12.9426 131.77 12.8758 131.753 12.6839C131.72 12.3751 131.879 12.2333 131.945 12.1582C132.02 12.0831 132.096 12.0414 132.096 12.0414L132.121 12.5587C132.121 12.5587 132.037 12.5921 132.012 12.7506M134.616 2.93732C133.881 3.03746 133.155 3.10421 132.446 3.11256C131.728 3.11256 131.002 3.03746 130.268 2.93732C129.534 2.83719 128.824 2.67029 128.065 2.47002C127.531 3.97206 127.648 5.87464 128.057 7.56861C128.824 10.7563 130.752 13.1762 132.446 14.236C134.14 13.1679 136.068 10.7479 136.835 7.56861C137.244 5.87464 137.353 3.9804 136.827 2.47002C136.068 2.67029 135.358 2.83719 134.624 2.93732" fill="#00A2E2"/>
<path d="M103.899 16.1219C103.457 16.1219 103.14 15.8048 103.14 15.3625C103.14 14.9203 103.457 14.6032 103.899 14.6032C104.341 14.6032 104.65 14.9203 104.65 15.3625C104.65 15.8048 104.333 16.1219 103.899 16.1219ZM103.899 14.4613C103.398 14.4613 102.998 14.8702 102.998 15.3625C102.998 15.8549 103.407 16.2638 103.899 16.2638C104.391 16.2638 104.8 15.8632 104.8 15.3625C104.8 14.8619 104.4 14.4613 103.899 14.4613Z" fill="black"/>
<path d="M103.874 15.2958H103.69V14.962H103.974C104.1 14.962 104.217 14.9787 104.217 15.1205C104.217 15.3125 104.016 15.2874 103.874 15.2874M104.367 15.1205C104.367 14.937 104.275 14.8368 104.008 14.8368H103.565V15.8632H103.699V15.4043H103.924L104.217 15.8632H104.367L104.058 15.4043C104.242 15.3876 104.375 15.3125 104.375 15.1205" fill="black"/>
<path d="M16.0047 23.5401C15.8378 23.999 15.6709 24.4663 15.504 24.942C15.3371 25.4176 15.1702 25.8849 15.0117 26.3522C14.8531 26.8195 14.7196 27.2284 14.6028 27.5872C14.4359 27.5705 14.2523 27.5622 14.052 27.5622H13.7683C13.6765 27.5622 13.5764 27.5622 13.4846 27.5872C13.4012 27.2868 13.301 26.9113 13.1675 26.4357C13.034 25.9684 12.9005 25.4677 12.7419 24.942C12.5917 24.4163 12.4332 23.8822 12.2746 23.3398C12.1161 22.8057 11.9659 22.3051 11.8324 21.8628C11.6989 21.4122 11.582 21.0367 11.4819 20.7196C11.3901 20.4025 11.3233 20.2106 11.2983 20.1438C11.4569 20.1605 11.6154 20.1688 11.7656 20.1855C11.9158 20.1939 12.066 20.2022 12.2079 20.2022C12.3497 20.2022 12.4999 20.2022 12.6501 20.1855C12.8003 20.1772 12.9422 20.1605 13.0924 20.1438C13.2009 20.6028 13.3177 21.0784 13.4429 21.5707C13.5681 22.0547 13.6932 22.5387 13.8184 23.0144C13.9436 23.49 14.0687 23.949 14.1856 24.3912C14.3024 24.8335 14.4109 25.2424 14.5194 25.6179H14.5444C14.7029 25.1589 14.8782 24.6666 15.0618 24.1409C15.2453 23.6068 15.4289 23.0895 15.5958 22.5804C15.7711 22.0714 15.9296 21.6041 16.0715 21.1702C16.2133 20.7446 16.3301 20.4025 16.4052 20.1438C16.497 20.1605 16.5888 20.1688 16.6723 20.1855C16.7557 20.1939 16.8475 20.2022 16.9393 20.2022C17.0311 20.2022 17.1229 20.2022 17.2063 20.1855C17.2898 20.1772 17.3816 20.1605 17.4734 20.1438C17.4984 20.3023 17.5568 20.5193 17.6319 20.7863C17.7154 21.0534 17.8071 21.3538 17.9073 21.6792C18.0074 22.0047 18.1242 22.3468 18.2411 22.7056C18.3579 23.0644 18.4831 23.4232 18.5999 23.7821C18.7167 24.1325 18.8252 24.4747 18.9337 24.7918C19.0422 25.1089 19.1173 25.3842 19.184 25.6262H19.2091C19.3509 25.1673 19.5095 24.6666 19.668 24.1159C19.8266 23.5651 19.9851 23.0394 20.1353 22.522C20.2855 22.0047 20.4274 21.5374 20.5442 21.1118C20.6694 20.6862 20.7528 20.3608 20.8029 20.1438C20.9865 20.1772 21.1367 20.1939 21.2618 20.1939C21.3453 20.1939 21.4204 20.1939 21.5038 20.1772C21.5873 20.1688 21.6707 20.1521 21.7625 20.1355C21.7125 20.269 21.629 20.4943 21.5205 20.803C21.412 21.1118 21.2869 21.4789 21.145 21.9045C21.0032 22.3301 20.8446 22.7891 20.6777 23.2897C20.5108 23.7904 20.3439 24.2911 20.177 24.7918C20.0101 25.3008 19.8516 25.7931 19.693 26.2771C19.5345 26.7611 19.401 27.195 19.2842 27.5789C19.1173 27.5622 18.9337 27.5539 18.7334 27.5539H18.4497C18.3579 27.5539 18.2578 27.5539 18.166 27.5789C17.9323 26.6944 17.6736 25.8182 17.3816 24.9503C17.0895 24.0825 16.7808 23.1896 16.4553 22.2884H16.4303C16.2968 22.6555 16.1549 23.0728 15.988 23.5317L16.0047 23.5401Z" fill="black"/>
<path d="M22.7472 21.5457C22.7305 21.0784 22.7138 20.6111 22.6888 20.1438C23.0142 20.1438 23.3313 20.1605 23.6568 20.1772C23.9822 20.1939 24.2993 20.2022 24.6247 20.2022C25.1588 20.2022 25.6344 20.2022 26.0517 20.1855C26.4689 20.1772 26.7443 20.1605 26.8945 20.1438C26.8695 20.2606 26.8528 20.4108 26.8528 20.5944C26.8528 20.7112 26.8528 20.803 26.8611 20.8698C26.8695 20.9365 26.8778 21.0033 26.8945 21.0867C26.6859 21.0701 26.4522 21.0534 26.2102 21.045C25.9599 21.0283 25.7179 21.0116 25.4842 21.0033C25.2506 20.9866 25.042 20.9783 24.8501 20.9699C24.6581 20.9699 24.5246 20.9616 24.4495 20.9616C24.4245 21.3621 24.4078 21.7543 24.3994 22.1465C24.3994 22.5387 24.3994 22.9309 24.3994 23.3315C24.8667 23.3315 25.2923 23.3148 25.6762 23.2981C26.06 23.2814 26.4522 23.2647 26.8611 23.2397C26.8361 23.3648 26.8277 23.4566 26.8194 23.5234C26.811 23.5901 26.811 23.6569 26.811 23.732C26.811 23.7904 26.811 23.8488 26.8277 23.9072C26.8361 23.9656 26.8528 24.0574 26.8695 24.1743C26.0433 24.1075 25.2256 24.0741 24.4078 24.0741C24.4078 24.3078 24.4078 24.5331 24.4078 24.7667C24.4078 25.0004 24.4078 25.2257 24.4078 25.4593C24.4078 25.9266 24.4161 26.3773 24.4412 26.8112C24.8501 26.8112 25.2673 26.8028 25.6762 26.7778C26.0851 26.7528 26.5023 26.7194 26.9195 26.6693C26.9028 26.7528 26.8945 26.8195 26.8861 26.8863C26.8861 26.953 26.8778 27.0448 26.8778 27.1617C26.8778 27.2785 26.8778 27.3703 26.8861 27.4287C26.8945 27.4871 26.9028 27.5455 26.9195 27.5956C26.7276 27.5956 26.4856 27.5789 26.2019 27.5789C25.9182 27.5789 25.526 27.5789 25.0253 27.5789H23.3063C23.1477 27.5789 23.0226 27.5789 22.9391 27.5789C22.8557 27.5789 22.7889 27.5872 22.7305 27.5956C22.7555 27.145 22.7722 26.6944 22.7889 26.2271C22.8056 25.7598 22.8056 25.2257 22.8056 24.6249V23.1479C22.8056 22.5471 22.8056 22.013 22.7889 21.5457H22.7472Z" fill="black"/>
<path d="M30.1823 20.6779C29.8485 20.6779 29.5815 20.778 29.3728 20.9699C29.1642 21.1618 29.0557 21.3955 29.0557 21.6542C29.0557 21.9129 29.1392 22.1382 29.2977 22.3134C29.4563 22.4803 29.6649 22.6389 29.9069 22.7724C30.1489 22.9059 30.4159 23.0394 30.6996 23.1646C30.9834 23.2897 31.242 23.4483 31.4924 23.6319C31.7344 23.8155 31.943 24.0408 32.1015 24.2994C32.2601 24.5665 32.3435 24.9003 32.3435 25.3091C32.3435 25.668 32.2768 26.0018 32.1349 26.3022C31.9931 26.6026 31.8011 26.8613 31.5508 27.0699C31.3005 27.2868 31.0001 27.4454 30.6496 27.5539C30.2991 27.6623 29.9069 27.7208 29.473 27.7208C29.0808 27.7208 28.7303 27.679 28.4299 27.5956C28.1211 27.5121 27.8875 27.412 27.7289 27.2868C27.804 27.0365 27.8625 26.8028 27.9125 26.5942C27.9626 26.3856 28.0043 26.1603 28.046 25.91H28.2547C28.2797 26.0685 28.3381 26.2187 28.4132 26.3606C28.4883 26.5024 28.5968 26.6276 28.7136 26.7361C28.8388 26.8446 28.9806 26.928 29.1559 26.9948C29.3311 27.0532 29.523 27.0866 29.74 27.0866C30.1739 27.0866 30.491 26.9781 30.6996 26.7611C30.9083 26.5442 31.0084 26.2855 31.0084 25.9851C31.0084 25.7097 30.9249 25.4844 30.7664 25.3091C30.6079 25.1339 30.4076 24.9837 30.1739 24.8502C29.9403 24.7167 29.6733 24.5832 29.3895 24.458C29.1058 24.3328 28.8471 24.1743 28.6135 23.999C28.3715 23.8155 28.1796 23.5985 28.021 23.3315C27.8625 23.0644 27.779 22.7306 27.779 22.3218C27.779 21.9462 27.8458 21.6125 27.9793 21.3204C28.1128 21.0283 28.288 20.7863 28.5133 20.5944C28.7386 20.4025 28.9973 20.2523 29.2894 20.1521C29.5815 20.052 29.8902 20.0019 30.2157 20.0019C30.6079 20.0019 30.95 20.052 31.242 20.1438C31.5341 20.2356 31.7845 20.3691 31.9931 20.536C31.9263 20.7029 31.8679 20.8614 31.8262 21.02C31.7761 21.1785 31.7177 21.3705 31.6509 21.6125H31.4924C31.2587 20.995 30.8248 20.6779 30.1823 20.6779Z" fill="black"/>
<path d="M34.9804 21.3368C34.9804 21.1616 34.9638 21.0364 34.9554 20.9529C34.8469 20.9529 34.7134 20.9529 34.5549 20.9613C34.3963 20.9613 34.2294 20.978 34.0458 20.9863C33.8623 20.9947 33.6787 21.0113 33.4951 21.028C33.3115 21.0447 33.1363 21.0614 32.9777 21.0865C32.9944 21.0113 33.0028 20.9279 33.0194 20.8445C33.0278 20.761 33.0361 20.6859 33.0361 20.6025C33.0361 20.519 33.0361 20.4439 33.0194 20.3605C33.0111 20.2854 32.9944 20.2019 32.9777 20.1185C33.2197 20.1185 33.445 20.1352 33.6453 20.1435C33.8456 20.1435 34.0458 20.1518 34.2545 20.1602C34.4631 20.1602 34.6884 20.1602 34.9304 20.1685C35.1724 20.1685 35.4644 20.1685 35.8066 20.1685C36.1487 20.1685 36.4324 20.1685 36.6744 20.1685C36.9164 20.1685 37.1417 20.1685 37.342 20.1602C37.5423 20.1602 37.7425 20.1518 37.9345 20.1435C38.1264 20.1352 38.335 20.1268 38.5603 20.1185C38.5436 20.2019 38.5353 20.277 38.5186 20.3605C38.5102 20.4439 38.5019 20.519 38.5019 20.6025C38.5019 20.6859 38.5019 20.761 38.5186 20.8445C38.5269 20.9196 38.5436 21.003 38.5603 21.0865C38.4184 21.0614 38.2516 21.0447 38.0763 21.028C37.9011 21.0113 37.7175 20.9947 37.5423 20.9863C37.367 20.978 37.2001 20.9696 37.0416 20.9613C36.883 20.9613 36.7495 20.9529 36.641 20.9529C36.641 20.9863 36.6243 21.0364 36.6243 21.1031C36.6243 21.1699 36.6243 21.245 36.6243 21.3284V24.6079C36.6243 25.2087 36.6243 25.7428 36.6494 26.2101C36.6661 26.6774 36.6828 27.1363 36.7161 27.5786C36.591 27.5619 36.4574 27.5536 36.3156 27.5536H35.3393C35.1974 27.5536 35.0639 27.5536 34.9387 27.5786C34.9638 27.128 34.9888 26.6774 35.0055 26.2101C35.0222 25.7428 35.0305 25.2087 35.0305 24.6079V21.8959C35.0305 21.6873 35.0305 21.4953 35.0305 21.3201L34.9804 21.3368Z" fill="black"/>
<path d="M45.962 22.8141C46.3125 21.8878 46.638 20.9949 46.9133 20.1438C47.0969 20.1772 47.2555 20.1939 47.389 20.1939C47.5225 20.1939 47.681 20.1772 47.8646 20.1438C47.681 20.5694 47.4641 21.0784 47.2137 21.6792C46.9634 22.28 46.6964 22.9142 46.421 23.5901C46.1456 24.2661 45.8786 24.942 45.6116 25.6346C45.3445 26.3272 45.1025 26.9781 44.8939 27.5872C44.7521 27.5705 44.5935 27.5622 44.4183 27.5622C44.243 27.5622 44.0845 27.5622 43.9426 27.5872C43.8342 27.2952 43.7006 26.9447 43.5504 26.5358C43.4002 26.1269 43.225 25.6846 43.0498 25.2257C42.8745 24.7667 42.6826 24.2911 42.4907 23.8071C42.2987 23.3231 42.1068 22.8558 41.9232 22.4052C41.7396 21.9546 41.5727 21.5374 41.4142 21.1452C41.2557 20.753 41.1221 20.4192 41.0053 20.1521C41.1722 20.1688 41.3391 20.1772 41.4976 20.1939C41.6562 20.2022 41.8231 20.2105 41.9816 20.2105C42.1402 20.2105 42.2987 20.2105 42.4573 20.1939C42.6158 20.1855 42.7744 20.1688 42.9329 20.1521C43.0581 20.561 43.1916 20.9866 43.3502 21.4289C43.5087 21.8795 43.6673 22.3301 43.8342 22.7974C44.001 23.2647 44.1679 23.732 44.3515 24.1993C44.5268 24.6666 44.702 25.1339 44.8689 25.5845C45.2444 24.6666 45.6116 23.7403 45.962 22.8141Z" fill="black"/>
<path d="M48.9995 21.5457C48.9828 21.0784 48.9661 20.6111 48.9328 20.1438C49.0579 20.1605 49.1914 20.1688 49.3333 20.1855C49.4752 20.1939 49.642 20.2022 49.8173 20.2022C49.9925 20.2022 50.1594 20.2022 50.3013 20.1855C50.4431 20.1772 50.5766 20.1605 50.7018 20.1438C50.6768 20.6111 50.6518 21.0784 50.6351 21.5457C50.6184 22.013 50.61 22.5471 50.61 23.1479V24.6249C50.61 25.2257 50.61 25.7598 50.6351 26.2271C50.6518 26.6944 50.6684 27.1533 50.7018 27.5956C50.5766 27.5789 50.4431 27.5705 50.3013 27.5705H49.325C49.1831 27.5705 49.0496 27.5705 48.9244 27.5956C48.9494 27.145 48.9745 26.6944 48.9912 26.2271C49.0079 25.7598 49.0162 25.2257 49.0162 24.6249V23.1479C49.0162 22.5471 49.0162 22.013 48.9912 21.5457H48.9995Z" fill="black"/>
<path d="M54.1899 24.1743V24.6165C54.1899 25.2174 54.1899 25.7514 54.2149 26.2187C54.2316 26.686 54.2483 27.145 54.2817 27.5872C54.1565 27.5705 54.023 27.5622 53.8811 27.5622H52.9048C52.763 27.5622 52.6294 27.5622 52.5043 27.5872C52.5293 27.1366 52.5543 26.686 52.571 26.2187C52.5877 25.7514 52.5961 25.2174 52.5961 24.6165V23.1395C52.5961 22.5387 52.5961 22.0047 52.571 21.5374C52.5543 21.0701 52.5377 20.6028 52.5043 20.1355C52.6294 20.1521 52.763 20.1605 52.9048 20.1772C53.0467 20.1855 53.2136 20.1939 53.3888 20.1939C53.5807 20.1939 53.806 20.1855 54.0564 20.1688C54.3067 20.1521 54.6155 20.1438 54.9826 20.1438C55.258 20.1438 55.4917 20.1438 55.6836 20.1688C55.8755 20.1855 56.0508 20.2022 56.1843 20.2356C56.3261 20.269 56.4513 20.3023 56.5514 20.3524C56.6516 20.4025 56.7517 20.4525 56.8518 20.5193C57.0688 20.6779 57.244 20.8781 57.3692 21.1118C57.4944 21.3454 57.5611 21.6291 57.5611 21.9546C57.5611 22.4803 57.4193 22.9142 57.1272 23.2397C56.8352 23.5735 56.4263 23.8071 55.8839 23.9406C56.2343 24.5581 56.6015 25.1673 57.002 25.7764C57.4026 26.3856 57.7948 26.9948 58.1953 27.5956C58.0284 27.5789 57.8699 27.5705 57.7113 27.5705H56.7267C56.5681 27.5705 56.4012 27.5706 56.2343 27.5956L54.2984 24.1826H54.1982L54.1899 24.1743ZM55.8088 21.4205C55.742 21.2369 55.6419 21.0867 55.5084 20.995C55.3748 20.8948 55.1996 20.8364 54.991 20.803C54.774 20.778 54.5237 20.7613 54.2233 20.7613C54.1982 21.746 54.1899 22.7223 54.1899 23.707C54.2316 23.707 54.2733 23.7237 54.3151 23.7237C54.3568 23.7237 54.3902 23.7237 54.4319 23.7237C54.9075 23.7237 55.2747 23.5985 55.525 23.3398C55.7754 23.0811 55.9006 22.6973 55.9006 22.1715C55.9006 21.8545 55.8672 21.6041 55.8004 21.4122L55.8088 21.4205Z" fill="black"/>
<path d="M64.529 20.9779C64.1785 20.7776 63.7613 20.6775 63.2606 20.6775C62.9268 20.6775 62.6014 20.7442 62.2676 20.8861C61.9338 21.0279 61.6501 21.2366 61.3914 21.5203C61.1327 21.804 60.9241 22.1545 60.7656 22.58C60.607 23.0056 60.5236 23.498 60.5236 24.0737C60.5236 24.5077 60.582 24.9082 60.6988 25.2754C60.8156 25.6425 60.9909 25.9596 61.2162 26.235C61.4415 26.502 61.7169 26.719 62.0423 26.8692C62.3678 27.0194 62.7433 27.0945 63.1605 27.0945C63.2523 27.0945 63.3608 27.0945 63.4776 27.0778C63.5944 27.0695 63.7112 27.0528 63.8281 27.0361C63.9365 27.0194 64.045 27.0027 64.1368 26.9777C64.2286 26.9527 64.2954 26.9276 64.3454 26.8942C64.3621 26.8108 64.3705 26.7023 64.3705 26.5688C64.3705 26.4353 64.3705 26.2934 64.3705 26.1349C64.3705 25.5507 64.3621 25.1168 64.3371 24.8415C64.3121 24.5661 64.3037 24.3742 64.2954 24.274C64.3705 24.2907 64.4623 24.299 64.5791 24.3074C64.6959 24.3157 64.8712 24.3241 65.0965 24.3241C65.3551 24.3241 65.5471 24.3241 65.6722 24.3074C65.7974 24.299 65.8975 24.2824 65.9726 24.274C65.956 24.3324 65.9476 24.4242 65.9309 24.5577C65.9226 24.6912 65.9142 24.8331 65.9059 25.0083C65.9059 25.1752 65.8892 25.3588 65.8892 25.5507C65.8892 25.7427 65.8892 25.9263 65.8892 26.1015V26.4603C65.8892 26.6439 65.8892 26.8108 65.8892 26.961C65.8892 27.1195 65.9059 27.228 65.9142 27.2948C65.4386 27.4366 64.9546 27.5368 64.4706 27.6202C63.9866 27.7037 63.5026 27.7371 63.027 27.7371C62.4095 27.7371 61.8337 27.6536 61.308 27.4951C60.7823 27.3365 60.3317 27.0945 59.9561 26.7774C59.5806 26.4603 59.2802 26.0848 59.0716 25.6425C58.8547 25.2003 58.7545 24.6996 58.7545 24.1405C58.7545 23.4562 58.8713 22.8554 59.0966 22.3381C59.322 21.8207 59.639 21.3951 60.0396 21.053C60.4401 20.7108 60.9158 20.4522 61.4665 20.2769C62.0173 20.1017 62.6098 20.0182 63.2439 20.0182C63.7947 20.0182 64.2703 20.0766 64.6709 20.1851C65.0714 20.2936 65.4636 20.4605 65.8558 20.6691C65.7974 20.861 65.739 21.0446 65.6889 21.2199C65.6389 21.4034 65.5888 21.587 65.5554 21.7706H65.4052C65.1716 21.4452 64.8878 21.1865 64.5374 20.9862L64.529 20.9779Z" fill="black"/>
<path d="M67.6582 21.5457C67.6415 21.0784 67.6248 20.6111 67.5914 20.1438C67.7166 20.1605 67.8501 20.1688 67.992 20.1855C68.1339 20.1939 68.3007 20.2022 68.476 20.2022C68.6512 20.2022 68.8181 20.2022 68.96 20.1855C69.1018 20.1772 69.2353 20.1605 69.3605 20.1438C69.3355 20.6111 69.3104 21.0784 69.2938 21.5457C69.2771 22.013 69.2687 22.5471 69.2687 23.1479V24.6249C69.2687 25.2257 69.2687 25.7598 69.2938 26.2271C69.3104 26.6944 69.3271 27.1533 69.3605 27.5956C69.2353 27.5789 69.1018 27.5705 68.96 27.5705H67.9836C67.8418 27.5705 67.7083 27.5705 67.5831 27.5956C67.6081 27.145 67.6332 26.6944 67.6499 26.2271C67.6665 25.7598 67.6749 25.2257 67.6749 24.6249V23.1479C67.6749 22.5471 67.6749 22.013 67.6499 21.5457H67.6582Z" fill="black"/>
<path d="M71.3215 21.045C71.3048 20.7029 71.2964 20.4025 71.2881 20.1438C71.4884 20.1772 71.6553 20.1939 71.7721 20.1939C71.8889 20.1939 72.0558 20.1772 72.2561 20.1438C73.0405 21.02 73.8249 21.8795 74.5926 22.7223C75.3603 23.5651 76.153 24.4246 76.9625 25.3008V23.3064C76.9625 22.9559 76.9625 22.6055 76.9625 22.2633C76.9625 21.9212 76.9625 21.6041 76.9541 21.3121C76.9541 21.02 76.9458 20.778 76.9291 20.561C76.9207 20.3524 76.9041 20.2106 76.8957 20.1355C77.096 20.1688 77.2629 20.1855 77.3797 20.1855C77.4965 20.1855 77.6634 20.1688 77.8637 20.1355C77.8303 20.7947 77.7969 21.3872 77.7802 21.9212C77.7552 22.4553 77.7385 22.9559 77.7302 23.4232C77.7135 23.8906 77.7051 24.3579 77.7051 24.8168C77.7051 25.2758 77.7051 25.7681 77.7051 26.2855V27.5872C77.5633 27.5705 77.4131 27.5622 77.2629 27.5622C77.1043 27.5622 76.9625 27.5622 76.8373 27.5872C75.352 25.8515 73.7748 24.1075 72.1059 22.3551C72.1059 22.5638 72.0975 22.7724 72.0892 22.981C72.0892 23.1896 72.0892 23.4066 72.0892 23.6235V24.8836C72.0892 25.3175 72.0892 25.6847 72.0892 25.9934C72.0892 26.2938 72.0975 26.5525 72.1059 26.7611C72.1059 26.9697 72.1226 27.145 72.1309 27.2785C72.1393 27.412 72.1476 27.5205 72.1559 27.5956C72.0725 27.5789 71.9807 27.5705 71.8973 27.5705H71.6469C71.48 27.5705 71.3131 27.5706 71.1462 27.5956C71.1629 27.5372 71.1796 27.3286 71.2047 26.9781C71.2297 26.6276 71.2464 26.1937 71.2714 25.6847C71.2964 25.1756 71.3215 24.6249 71.3382 24.0241C71.3549 23.4316 71.3632 22.8558 71.3632 22.3051C71.3632 21.8044 71.3632 21.3872 71.3382 21.045H71.3215Z" fill="black"/>
<path d="M79.6996 21.5457C79.6829 21.0784 79.6662 20.6111 79.6328 20.1438C79.758 20.1605 79.8915 20.1688 80.0333 20.1855C80.1752 20.1939 80.3421 20.2022 80.5173 20.2022C80.6926 20.2022 80.8595 20.2022 81.0013 20.1855C81.1432 20.1772 81.2767 20.1605 81.4019 20.1438C81.3685 20.6111 81.3518 21.0784 81.3351 21.5457C81.3184 22.013 81.3101 22.5471 81.3101 23.1479V24.6249C81.3101 25.2257 81.3101 25.7598 81.3351 26.2271C81.3518 26.6944 81.3685 27.1533 81.4019 27.5956C81.2767 27.5789 81.1432 27.5705 81.0013 27.5705H80.025C79.8831 27.5705 79.7496 27.5705 79.6245 27.5956C79.6578 27.145 79.6745 26.6944 79.6912 26.2271C79.7079 25.7598 79.7162 25.2257 79.7162 24.6249V23.1479C79.7162 22.5471 79.7162 22.013 79.6912 21.5457H79.6996Z" fill="black"/>
<path d="M89.396 27.5872C89.2208 27.5705 89.0539 27.5622 88.9037 27.5622H87.9858C87.8272 27.5622 87.677 27.5622 87.5268 27.5872C87.41 27.2368 87.2932 26.8696 87.168 26.5024C87.0428 26.1353 86.9177 25.7681 86.7758 25.4009C86.5422 25.4009 86.3169 25.3842 86.0832 25.3842C85.8496 25.3842 85.6243 25.3842 85.3906 25.3842C85.1987 25.3842 85.0151 25.3842 84.8232 25.3842C84.6396 25.3842 84.4477 25.3926 84.2641 25.4009C84.1222 25.7681 83.9887 26.1353 83.8635 26.5024C83.7384 26.8696 83.6299 27.2284 83.5297 27.5872C83.4463 27.5705 83.3545 27.5622 83.2711 27.5622H82.7537C82.6702 27.5622 82.5701 27.5622 82.47 27.5872C82.5534 27.3953 82.6702 27.1366 82.8204 26.8028C82.9623 26.469 83.1209 26.0935 83.2961 25.6763C83.4713 25.2591 83.6549 24.8085 83.8552 24.3245C84.0555 23.8405 84.2557 23.3565 84.4477 22.8642C84.6479 22.3718 84.8399 21.8878 85.0318 21.4122C85.2237 20.9365 85.3989 20.4943 85.5575 20.077C85.6326 20.0937 85.6994 20.1021 85.7661 20.1188C85.8329 20.1354 85.8996 20.1354 85.9747 20.1354C86.0498 20.1354 86.1166 20.1354 86.1833 20.1188C86.2501 20.1104 86.3169 20.0937 86.392 20.077C86.6256 20.6945 86.8676 21.3454 87.1346 22.0464C87.4017 22.7473 87.6604 23.4399 87.9274 24.1075C88.1944 24.7834 88.4531 25.426 88.7118 26.0351C88.9621 26.6443 89.1958 27.1533 89.4044 27.5705L89.396 27.5872ZM85.5575 22.1799C85.3656 22.6138 85.1903 23.0394 85.0234 23.465C84.8565 23.8905 84.698 24.3161 84.5394 24.7584H86.5255C86.3669 24.3161 86.2084 23.8905 86.0582 23.465C85.8996 23.0394 85.7411 22.6138 85.5658 22.1799H85.5575Z" fill="black"/>
</svg>
