<svg width="139" height="17" viewBox="0 0 139 17" fill="none" xmlns="http://www.w3.org/2000/svg">
<path d="M22.213 4.50645H19.7764C19.8431 5.7665 19.8598 5.90001 19.8598 6.42573C19.8765 6.85131 19.8932 8.91244 19.8932 9.35471V10.4395L19.8765 13.1766C19.8765 13.8024 19.7597 15.8635 19.743 16.1723H22.1379C21.971 14.9456 21.971 13.502 21.971 12.1585C21.971 10.3894 21.9877 6.27552 22.213 4.50645V4.50645Z" fill="black"/>
<path d="M25.0001 4.50645H27.4201C27.2365 5.7665 27.2365 8.71217 27.2365 10.4312C27.2365 12.9679 27.2699 14.8038 27.4034 16.1806H24.9834C25.167 14.1529 25.167 11.3491 25.167 8.43679C25.167 7.36868 25.167 6.1587 25.0001 4.50645V4.50645Z" fill="black"/>
<path d="M36.0485 4.37294C37.442 4.37294 38.6687 4.61494 40.0289 5.2241L39.5198 6.89303H39.3529C39.1527 6.48414 38.5519 5.29085 36.1069 5.29085C33.2697 5.29085 31.751 7.16006 31.751 10.3811C31.751 11.6745 31.9929 12.9012 32.7857 13.9359C33.3949 14.737 34.3211 15.488 35.8649 15.488C36.666 15.488 37.6006 15.3211 38.2848 14.8789C38.3349 13.6856 38.3349 13.5521 38.3349 13.3268C38.3349 12.4923 38.2848 11.6578 38.2348 10.8234H40.5129C40.4127 11.4325 40.3793 13.2183 40.3793 13.6856C40.3793 14.3281 40.396 14.7537 40.4294 15.2377C38.9858 16.0054 37.1249 16.431 35.4977 16.431C32.1765 16.431 29.4228 14.3699 29.4228 10.548C29.4228 7.12668 31.5173 4.38963 36.0568 4.38963L36.0485 4.37294Z" fill="black"/>
<path d="M50.7267 10.4395C49.8088 10.4061 48.8909 10.3728 47.973 10.3728C47.005 10.3728 46.037 10.4061 45.0607 10.4395V12.1418C45.0607 14.3365 45.1275 15.1042 45.2109 16.1723H42.8327C42.9662 13.5855 42.9829 11.0153 42.9829 8.42846C42.9829 7.10166 42.9328 5.80824 42.816 4.49812H45.2109C45.1275 5.43273 45.0607 6.16706 45.0607 9.34637C45.9118 9.37975 46.7797 9.41313 47.6309 9.41313C48.6656 9.41313 49.692 9.37975 50.7267 9.34637C50.7267 8.90411 50.71 6.84297 50.6933 6.4174C50.6933 5.89168 50.6767 5.74982 50.6099 4.49812H53.0465C52.8296 6.26719 52.8045 10.3811 52.8045 12.1502C52.8045 13.4937 52.8045 14.9373 52.9714 16.164H50.5765C50.5932 15.8552 50.71 13.8024 50.71 13.1682L50.7267 10.4312V10.4395Z" fill="black"/>
<path d="M57.9949 5.57459C59.1215 7.86937 59.5971 8.77059 61.2076 11.6662L62.1255 13.3017L62.7514 12.1919C64.3536 9.3881 65.0962 7.9695 66.8319 4.49812H67.5663L67.6998 5.90837C67.8834 7.91944 68.1087 9.78864 68.384 11.8331C68.5175 12.8511 68.8764 15.3212 69.0683 16.1723H66.6901L66.64 15.5465C66.6066 15.2043 66.5232 13.6939 66.4898 13.3852C66.4063 12.6008 65.9975 9.16279 65.9474 8.45349C64.8042 10.3895 62.9016 13.8608 61.9002 16.1807H61.2327C60.5901 14.8872 60.1645 14.1696 58.8878 11.7079C58.6291 11.2156 57.4275 9.071 57.1855 8.62873C56.8767 11.007 56.593 13.6272 56.4678 16.1807H54.9742L55.0743 15.6549C55.4832 13.5437 56.5012 6.48415 56.7098 4.51481H57.4776L58.0033 5.58293L57.9949 5.57459Z" fill="black"/>
<path d="M77.5798 14.2864L76.8622 12.484C76.1279 12.4506 75.4186 12.4172 74.6842 12.4172C74 12.4172 73.3241 12.4506 72.6398 12.484C72.0974 13.7941 71.555 15.2043 71.2796 16.1723H69.6941L71.6635 11.783C73.3825 7.93612 74.3671 5.72478 74.776 4.33122H75.8859C76.7036 6.65938 77.7217 9.04596 78.3392 10.4729C78.9817 11.9499 80.1083 14.5201 80.876 16.1723H78.2891L77.5715 14.2864H77.5798ZM74.776 7.24351L73.0403 11.4325C73.6328 11.4492 74.2169 11.4993 74.8094 11.4993C75.3351 11.4993 75.8441 11.4659 76.3782 11.4325L74.776 7.24351Z" fill="black"/>
<path d="M87.4433 11.0735C87.702 11.4323 88.0691 11.9914 88.3278 12.3502C89.6713 14.2361 90.1303 14.8369 91.2067 16.1804H88.3111C88.0525 15.7882 87.6853 15.1624 87.4266 14.7702C86.5588 13.4267 85.5073 11.933 84.5894 10.6396H84.1805V13.0595C84.1805 13.5518 84.2473 15.7465 84.2473 16.1888H81.9358C82.0693 12.8342 82.086 12.4587 82.086 9.17924C82.086 6.95121 82.086 6.70922 81.9692 4.51457H86.4753C87.5852 4.51457 88.4113 4.64809 89.1456 5.34904C89.6546 5.84137 89.93 6.54233 89.93 7.25162C89.93 9.13752 88.5198 10.1138 86.9677 10.3976L87.4433 11.0818V11.0735ZM84.1805 9.83012C84.506 9.84681 84.9149 9.88019 85.3571 9.88019C87.0594 9.88019 87.6853 8.63684 87.6853 7.53534C87.6853 6.8177 87.5685 6.20854 86.9677 5.76627C86.5087 5.42414 85.9496 5.34069 85.3822 5.34069C85.0567 5.34069 84.4309 5.40745 84.1722 5.42414V9.83012H84.1805Z" fill="black"/>
<path d="M92.5502 4.50647H94.9284C94.8116 5.34093 94.8116 6.58429 94.7949 7.19345C94.7782 8.04461 94.7782 9.01259 94.7782 9.89712C96.0382 8.78728 96.7142 8.07798 97.6905 7.01821C98.4415 6.20043 99.3594 5.21576 99.8684 4.49812H101.804C100.937 5.23245 99.7433 6.36733 99.034 7.06828C98.1828 7.90275 97.9074 8.15309 96.6724 9.52161L97.5737 10.7149C98.4415 11.8581 100.895 15.0875 102.08 16.1723H99.1174C97.9074 14.47 96.5806 12.6008 94.7782 10.6064C94.7782 12.4756 94.7782 14.3699 94.9284 16.1723H92.5502C92.7004 13.2934 92.7004 13.1098 92.7004 8.42846C92.7004 6.4925 92.6837 6.20044 92.5502 4.49812V4.50647Z" fill="black"/>
<path d="M11.9908 4.50645C12.1076 5.81657 12.1577 7.10999 12.1577 8.43679C12.1577 8.53693 12.1577 8.63706 12.1577 8.7372C12.8169 8.86237 13.5095 8.98754 14.2355 9.10437C14.2355 6.13366 14.3023 5.41602 14.3857 4.50645H11.9908V4.50645Z" fill="black"/>
<path d="M14.2354 10.7152C13.5178 10.6234 12.8252 10.5316 12.1576 10.4398C12.1493 12.3507 12.1076 14.2617 12.0074 16.1809H14.3856C14.3022 15.1128 14.2354 14.3451 14.2354 12.1505V10.7235V10.7152Z" fill="black"/>
<path d="M50.5432 0.509017C42.7242 -0.00835238 34.0124 -0.108488 25.9848 0.225298C18.5664 0.525706 12.1828 1.16825 7.53478 2.08616C2.82004 3.01242 0.291606 4.12226 0.0245762 5.39899C-0.133972 6.15001 0.475188 6.86765 1.83537 7.53523C4.78104 8.97885 11.1981 10.1721 19.8849 10.9148H19.9016V10.2472C13.0756 9.50457 8.16063 8.47817 5.6906 7.2682C4.9229 6.89269 4.03836 6.32525 4.16353 5.71609C4.53904 3.92199 12.6751 1.66893 29.6314 0.959629C36.449 0.67591 43.6672 0.700944 50.5181 1.03473C50.6684 1.03473 50.7852 0.92625 50.7935 0.784391C50.7935 0.642532 50.6934 0.517362 50.5432 0.509017V0.509017Z" fill="#00A2E2"/>
<path d="M120.179 8.11128C120.179 10.7148 118.068 12.826 115.465 12.826C112.861 12.826 110.75 10.7148 110.75 8.11128C110.75 5.50775 112.861 3.39655 115.465 3.39655C118.068 3.39655 120.179 5.50775 120.179 8.11128Z" fill="white"/>
<path d="M137.528 1.64368L137.445 1.43506L137.236 1.51016C136.001 1.93574 135.283 2.06091 134.607 2.16939C133.998 2.26118 133.431 2.32794 132.504 2.33628C131.578 2.32794 131.011 2.26118 130.402 2.16939C129.717 2.06091 129.008 1.93574 127.773 1.51016L127.564 1.43506L127.481 1.64368C126.697 3.5546 126.738 6.19152 127.589 8.68657C128.574 11.5655 130.034 13.5682 132.171 14.9618L132.53 15.1871L132.905 14.9284C135.016 13.5348 136.46 11.5404 137.436 8.68657C138.287 6.19152 138.329 3.5546 137.545 1.64368H137.528Z" fill="white"/>
<path d="M115.481 9.28761C115.481 9.28761 115.431 9.29596 115.415 9.32099L113.921 11.6074C114.397 11.816 114.922 11.9412 115.481 11.9412C116.04 11.9412 116.566 11.8244 117.042 11.6074L115.548 9.32099C115.548 9.32099 115.506 9.28761 115.49 9.28761" fill="#00A2E2"/>
<path d="M114.021 7.41006L111.76 7.20145C111.693 7.49351 111.651 7.79392 111.651 8.11102C111.651 9.06231 112.002 9.9385 112.577 10.6061L114.163 7.5853C114.196 7.49351 114.188 7.42675 114.021 7.41006" fill="#00A2E2"/>
<path d="M114.422 4.43901C113.696 4.64763 113.053 5.06486 112.577 5.62395H114.58C114.58 5.62395 114.639 5.57388 114.597 5.53216C114.38 5.29851 114.205 4.80617 114.43 4.43066" fill="#00A2E2"/>
<path d="M118.394 5.62456C117.918 5.06547 117.276 4.64824 116.55 4.43962C116.775 4.81513 116.591 5.30747 116.383 5.54112C116.341 5.58284 116.366 5.62456 116.399 5.63291H118.402L118.394 5.62456Z" fill="#00A2E2"/>
<path d="M116.942 7.41006C116.775 7.41841 116.766 7.49351 116.808 7.5853L118.394 10.6061C118.969 9.9385 119.32 9.06231 119.32 8.11102C119.32 7.80226 119.287 7.49351 119.211 7.20145L116.95 7.41006H116.942Z" fill="#00A2E2"/>
<path d="M118.227 11.6074L116.182 7.77723C116.032 7.45179 116.099 6.90939 116.658 6.83428L119.645 6.54222C119.829 7.02621 119.929 7.56027 119.929 8.11102C119.929 9.52961 119.262 10.7897 118.227 11.6074M117.926 11.8244C117.225 12.2834 116.391 12.5504 115.481 12.5504C114.572 12.5504 113.737 12.2834 113.036 11.816L115.198 8.57832C115.356 8.35301 115.598 8.3697 115.748 8.57832L117.91 11.816L117.926 11.8244ZM111.034 8.11102C111.034 7.56027 111.134 7.03456 111.317 6.54222L114.296 6.83428C114.856 6.90939 114.922 7.45179 114.772 7.77723L112.728 11.6074C111.693 10.7897 111.025 9.52127 111.025 8.10267M115.473 3.66331C117.259 3.66331 118.794 4.71474 119.504 6.22512H116.341C115.89 6.21678 115.69 5.94975 115.682 5.73279C115.673 5.4741 115.715 5.399 115.924 5.12363C116.149 4.81487 115.99 4.23075 115.481 4.2224C114.964 4.23075 114.805 4.81487 115.039 5.12363C115.248 5.399 115.289 5.4741 115.281 5.73279C115.281 5.94975 115.073 6.20843 114.622 6.22512H111.459C112.169 4.70639 113.704 3.66331 115.49 3.66331M119.061 4.49778V0.00834656H111.893V4.50612H107.395V11.6992H111.893V16.197H119.061V11.6992H123.559V4.50612H119.061V4.49778ZM121.765 16.1136C121.323 16.1136 121.006 15.7965 121.006 15.3542C121.006 14.9119 121.323 14.5948 121.765 14.5948C122.207 14.5948 122.516 14.9119 122.516 15.3542C122.516 15.7965 122.199 16.1136 121.765 16.1136ZM121.765 14.453C121.264 14.453 120.864 14.8619 120.864 15.3542C120.864 15.8465 121.273 16.2554 121.765 16.2554C122.257 16.2554 122.666 15.8549 122.666 15.3542C122.666 14.8535 122.266 14.453 121.765 14.453M121.74 15.2874H121.556V14.9536H121.84C121.965 14.9536 122.082 14.9703 122.082 15.1122C122.082 15.3041 121.882 15.2791 121.74 15.2791M122.232 15.1122C122.232 14.9286 122.14 14.8285 121.873 14.8285H121.431V15.8549H121.565V15.3959H121.79L122.082 15.8549H122.232L121.923 15.3959C122.107 15.3792 122.241 15.3041 122.241 15.1122" fill="#00A2E2"/>
<path d="M137.203 8.6117C136.343 11.1234 135.008 13.3431 132.505 14.9036C130.001 13.3515 128.666 11.1234 127.806 8.6117C127.047 6.38367 126.864 3.77179 127.698 1.73569C128.95 2.16961 129.684 2.29478 130.368 2.40326C131.002 2.5034 131.57 2.56181 132.505 2.5785C133.439 2.57016 134.007 2.5034 134.641 2.40326C135.325 2.29478 136.059 2.16961 137.311 1.73569C138.146 3.77179 137.962 6.38367 137.203 8.6117M138.012 0.00834467C136.268 0.884535 134.532 1.36018 132.496 1.36018C130.46 1.36018 128.724 0.87619 126.989 0C125.845 2.24472 125.662 5.89968 126.655 8.95383C127.606 11.8911 129.459 14.5698 132.505 16.2554C135.55 14.5698 137.403 11.8911 138.354 8.95383C139.347 5.89968 139.164 2.25306 138.02 0.00834467" fill="#00A2E2"/>
<path d="M137.044 16.1302C136.61 16.1302 136.301 15.8215 136.301 15.3876C136.301 14.9536 136.618 14.6449 137.044 14.6449C137.47 14.6449 137.787 14.9536 137.787 15.3876C137.787 15.8215 137.478 16.1302 137.044 16.1302ZM137.044 14.503C136.552 14.503 136.159 14.8952 136.159 15.3792C136.159 15.8632 136.56 16.2638 137.044 16.2638C137.528 16.2638 137.929 15.8716 137.929 15.3792C137.929 14.8869 137.536 14.503 137.044 14.503Z" fill="#00A2E2"/>
<path d="M137.019 15.3208H136.844V14.9954H137.119C137.245 14.9954 137.362 15.0121 137.362 15.1539C137.362 15.3458 137.161 15.3208 137.019 15.3208ZM137.495 15.1539C137.495 14.9703 137.403 14.8785 137.144 14.8785H136.71V15.8882H136.835V15.4376H137.053L137.336 15.8882H137.478L137.178 15.4376C137.353 15.4209 137.495 15.3542 137.495 15.1539" fill="#00A2E2"/>
<path d="M131.67 4.40573C131.754 4.46414 131.737 4.57262 131.862 4.54759C131.921 4.53924 131.962 4.49752 132.021 4.4558C132.021 4.4558 132.096 4.4558 132.113 4.46414C131.979 4.32228 131.712 4.32228 131.528 4.32228C131.57 4.40573 131.62 4.364 131.678 4.39738" fill="#00A2E2"/>
<path d="M134.299 4.6897C134.265 4.81487 134.232 4.81487 134.148 4.88997C133.981 5.04852 133.748 5.20707 133.531 5.41568C133.389 5.5492 133.256 5.63264 133.155 5.79119C133.13 5.82457 133.08 5.93305 133.08 5.93305C132.705 5.85795 132.321 5.84961 132.029 5.79119L132.012 5.46575C132.012 5.46575 132.388 5.46575 132.429 5.2321C132.429 5.22376 132.429 5.14865 132.379 5.12362C132.329 5.0819 132.212 5.04017 132.187 5.03183C132.471 5.07355 132.721 5.18203 133.013 5.3072C133.03 5.27382 132.988 5.16534 132.963 5.14031C132.922 5.09859 132.88 5.05686 132.772 5.04017C132.596 4.99011 132.162 4.94004 132.162 4.94004C132.162 4.94004 132.321 4.94004 132.53 4.92335C132.621 4.90666 132.713 4.87328 132.738 4.8399C132.755 4.78983 132.738 4.72308 132.663 4.65632C132.621 4.6146 132.58 4.56453 132.546 4.5228C132.504 4.46439 132.446 4.34757 132.371 4.28081C132.279 4.17233 131.987 4.0555 131.987 4.0555C131.987 4.0555 131.962 3.86358 132.012 3.77178C132.046 3.70503 132.204 3.69668 132.254 3.72172C132.471 3.83854 132.713 3.97206 132.997 4.02212C133.055 4.06385 133.055 4.08054 133.08 4.16398C133.122 4.35591 133.047 4.63963 133.08 4.77314C133.097 4.81487 133.139 4.81487 133.172 4.79818C133.439 4.65632 133.623 4.40598 133.89 4.28915C134.015 4.23909 134.382 4.41432 134.299 4.68135M133.105 8.36135C133.105 8.36135 133.139 7.79391 133.139 7.51854C133.289 7.46013 133.322 7.30992 133.264 7.1931C133.23 7.12634 133.122 7.07627 133.055 7.05958C132.738 6.98448 132.454 6.96779 132.129 6.93441C131.845 6.90103 131.62 6.86766 131.361 6.8009C130.827 6.66738 130.377 6.41704 130.143 5.93305C129.851 5.33224 130.11 4.58956 130.685 4.28915C131.119 4.06385 131.612 4.10557 132.046 4.27246C132.196 4.33088 132.279 4.46439 132.371 4.58956C132.413 4.64797 132.479 4.67301 132.513 4.73142C132.538 4.7648 132.488 4.78149 132.463 4.78983C132.363 4.81487 132.046 4.82321 131.937 4.80652C131.804 4.78983 131.587 4.79818 131.453 4.82321C131.587 4.89831 131.737 4.99845 131.879 5.04852C131.962 5.0819 132.029 5.0819 132.104 5.11528C132.137 5.13196 132.229 5.157 132.229 5.19872C132.221 5.24045 132.146 5.25713 132.087 5.27382C131.962 5.3072 131.795 5.31555 131.637 5.27382C131.386 5.21541 131.269 5.07355 131.111 5.157C131.011 5.21541 131.002 5.35727 131.036 5.49913C131.094 5.72444 131.32 5.81623 131.52 5.87464C132.204 6.0916 132.93 5.96643 133.598 6.31691C133.856 6.45042 134.148 6.71745 134.198 7.00117C134.424 8.19446 133.08 8.33632 133.08 8.33632M132.004 7.14303C132.004 7.14303 132.137 7.15972 132.471 7.17641C132.721 7.1931 132.897 7.2682 132.897 7.2682L132.863 8.46983C132.596 8.41976 132.421 8.38639 132.171 8.36135C132.087 7.92743 131.987 7.77722 131.812 7.46013C131.77 7.38503 131.812 7.35999 131.812 7.3433C131.837 7.30158 132.012 7.25985 132.012 7.25985V7.15972L132.004 7.14303ZM133.831 9.76325C133.781 9.95518 133.656 10.1137 133.456 10.2389C133.239 10.3641 133.013 10.3724 133.013 10.3724L133.03 9.71319C133.03 9.71319 133.08 9.70484 133.114 9.66312C133.147 9.6214 133.155 9.59636 133.147 9.53795C133.147 9.50457 133.114 9.4545 133.055 9.42947C132.988 9.40443 132.888 9.38774 132.847 9.38774C132.521 9.34602 132.221 9.31264 131.904 9.26258C131.328 9.17078 130.919 8.837 130.952 8.28625C130.977 7.91908 131.361 7.80226 131.637 7.68543C131.728 7.84398 131.804 8.01087 131.837 8.10267C131.887 8.25287 131.92 8.34466 131.92 8.34466C131.92 8.34466 131.795 8.3697 131.812 8.46983C131.82 8.56162 131.92 8.595 131.979 8.60335C132.379 8.66176 132.913 8.72852 133.197 8.82031C133.389 8.88707 133.573 8.99555 133.673 9.1374C133.831 9.36271 133.873 9.53795 133.815 9.76325M132.229 9.5296C132.488 9.56298 132.588 9.57133 132.813 9.59636L132.788 10.6812L132.538 10.5477L132.288 10.4308L132.229 9.53795V9.5296ZM133.239 12.1081C133.097 12.2249 132.922 12.2667 132.922 12.2667L132.938 11.7994C132.938 11.7994 132.988 11.7493 132.972 11.6992C132.947 11.6074 132.621 11.3821 132.438 11.3154C132.254 11.2486 132.012 11.1735 131.845 11.0984C131.445 10.9232 131.303 10.5727 131.461 10.1888C131.52 10.047 131.678 9.95518 131.77 9.89677C131.862 9.83836 132.004 9.79663 132.004 9.79663L132.046 10.339C132.046 10.339 131.995 10.3557 131.979 10.4058C131.945 10.4976 132.037 10.556 132.062 10.5643C132.321 10.6812 132.705 10.8314 132.98 10.9983C133.339 11.2069 133.456 11.3654 133.456 11.6158C133.456 11.8411 133.356 11.9913 133.222 12.0998M132.713 13.2764C132.713 13.3598 132.68 13.4266 132.513 13.4349C132.379 13.4349 132.321 13.3932 132.313 13.2513C132.288 12.6255 132.262 11.4489 132.262 11.4489C132.262 11.4489 132.438 11.4989 132.521 11.549C132.546 11.5657 132.638 11.6241 132.721 11.7076C132.738 11.7326 132.755 11.7409 132.746 11.7743C132.738 12.2333 132.705 13.0761 132.705 13.2764M132.012 12.759C131.987 12.9259 132.054 12.9926 132.037 13.0677C132.012 13.1929 131.929 13.1595 131.879 13.0677C131.812 12.9426 131.77 12.8758 131.753 12.6839C131.72 12.3751 131.879 12.2333 131.945 12.1582C132.02 12.0831 132.096 12.0413 132.096 12.0413L132.121 12.5587C132.121 12.5587 132.037 12.5921 132.012 12.7506M134.616 2.93732C133.881 3.03745 133.155 3.10421 132.446 3.11256C131.728 3.11256 131.002 3.03745 130.268 2.93732C129.534 2.83718 128.824 2.67029 128.065 2.47002C127.531 3.97206 127.648 5.87464 128.057 7.56861C128.824 10.7563 130.752 13.1762 132.446 14.236C134.14 13.1679 136.068 10.7479 136.835 7.56861C137.244 5.87464 137.353 3.9804 136.827 2.47002C136.068 2.67029 135.358 2.83718 134.624 2.93732" fill="#00A2E2"/>
<path d="M103.899 16.1219C103.457 16.1219 103.14 15.8048 103.14 15.3625C103.14 14.9203 103.457 14.6032 103.899 14.6032C104.341 14.6032 104.65 14.9203 104.65 15.3625C104.65 15.8048 104.333 16.1219 103.899 16.1219ZM103.899 14.4613C103.398 14.4613 102.998 14.8702 102.998 15.3625C102.998 15.8549 103.407 16.2638 103.899 16.2638C104.391 16.2638 104.8 15.8632 104.8 15.3625C104.8 14.8618 104.4 14.4613 103.899 14.4613Z" fill="black"/>
<path d="M103.874 15.2958H103.69V14.962H103.974C104.1 14.962 104.217 14.9787 104.217 15.1205C104.217 15.3125 104.016 15.2874 103.874 15.2874M104.367 15.1205C104.367 14.9369 104.275 14.8368 104.008 14.8368H103.565V15.8632H103.699V15.4042H103.924L104.217 15.8632H104.367L104.058 15.4042C104.242 15.3876 104.375 15.3125 104.375 15.1205" fill="black"/>
</svg>
