<svg width="48" height="48" viewBox="0 0 48 48" fill="none" xmlns="http://www.w3.org/2000/svg">
<path d="M22.7956 41.2854C32.1189 41.2854 39.677 33.7272 39.677 24.4037C39.677 15.0804 32.1189 7.52234 22.7956 7.52234C13.4722 7.52234 5.91406 15.0804 5.91406 24.4037C5.91406 33.7272 13.4722 41.2854 22.7956 41.2854Z" fill="#008DD1"/>
<path fill-rule="evenodd" clip-rule="evenodd" d="M2.27708 28.2262C2.67875 28.2262 3.00435 28.5519 3.00435 28.9535C3.00435 29.5321 3.23423 30.0871 3.64339 30.4963C4.05257 30.9055 4.60752 31.1353 5.18617 31.1353C5.58784 31.1353 5.91344 31.461 5.91344 31.8626C5.91344 32.2643 5.58784 32.5898 5.18617 32.5898C4.22175 32.5898 3.29683 32.2067 2.61488 31.5248C1.93293 30.8428 1.5498 29.918 1.5498 28.9535C1.5498 28.5519 1.87542 28.2262 2.27708 28.2262Z" fill="#13181B"/>
<path d="M29.6238 29.2717H26.3057V34.5445H29.6238V29.2717Z" fill="white"/>
<path d="M22.1326 38.1078H18.8145V43.3805H22.1326V38.1078Z" fill="white"/>
<path d="M13.4051 37.8625H10.0869V43.1353H13.4051V37.8625Z" fill="white"/>
<path d="M21.9663 20.0752L22.4173 24.7002L18.0342 22.552L21.9663 20.0752Z" fill="white"/>
<path d="M16.1104 40.7441C22.2272 40.7441 27.1857 36.5784 27.1857 31.4397C27.1857 26.301 22.2272 22.1353 16.1104 22.1353C9.99373 22.1353 5.03516 26.301 5.03516 31.4397C5.03516 36.5784 9.99373 40.7441 16.1104 40.7441Z" fill="white"/>
<path fill-rule="evenodd" clip-rule="evenodd" d="M21.7831 18.7776C22.0521 18.7533 22.3226 18.8044 22.5642 18.9253C22.8058 19.046 23.009 19.2317 23.151 19.4616C23.2931 19.6914 23.3683 19.9561 23.3683 20.2262V23.2077C25.1556 24.4291 26.5071 26.1875 27.2279 28.2262H28.4592C29.0378 28.2262 29.5927 28.4562 30.0019 28.8653C30.4112 29.2745 30.641 29.8294 30.641 30.408V33.3171C30.641 33.8957 30.4112 34.4508 30.0019 34.86C29.5927 35.2691 29.0378 35.4989 28.4592 35.4989H26.6028C25.8204 36.9285 24.7124 38.1542 23.3683 39.0764V42.0444C23.3683 42.623 23.1383 43.1781 22.7292 43.5872C22.32 43.9964 21.7651 44.2262 21.1865 44.2262H19.7319C19.1533 44.2262 18.5983 43.9964 18.1891 43.5872C17.7799 43.1781 17.5501 42.623 17.5501 42.0444V41.238C16.5833 41.3434 15.6079 41.3434 14.641 41.238V42.0444C14.641 42.623 14.4111 43.1781 14.002 43.5872C13.5928 43.9964 13.0378 44.2262 12.4592 44.2262H11.0046C10.426 44.2262 9.87103 43.9964 9.46185 43.5872C9.05269 43.1781 8.82281 42.623 8.82281 42.0444V39.0834C7.57148 38.2493 6.52717 37.1373 5.77272 35.8322C4.94901 34.4072 4.49734 32.7977 4.45938 31.1522L4.45898 31.1353C4.45898 25.4175 9.77341 20.9535 16.0956 20.9535H16.1023C16.8252 20.9602 17.5462 21.0271 18.2576 21.1535L21.0406 19.0629C21.2566 18.9008 21.514 18.8018 21.7831 18.7776ZM21.9137 20.2262L18.8742 22.5096C18.7078 22.6345 18.4959 22.6822 18.2921 22.6406C17.5679 22.493 16.8313 22.4152 16.0922 22.408C10.3757 22.4096 5.919 26.4057 5.91373 31.127C5.94741 32.5254 6.33192 33.8931 7.03202 35.1042C7.73353 36.3178 8.7293 37.3353 9.92752 38.0627C10.1447 38.1946 10.2774 38.4303 10.2774 38.6844V42.0444C10.2774 42.2373 10.354 42.4223 10.4904 42.5587C10.6268 42.695 10.8118 42.7717 11.0046 42.7717H12.4592C12.6521 42.7717 12.8371 42.695 12.9734 42.5587C13.1098 42.4223 13.1864 42.2373 13.1864 42.0444V40.4008C13.1864 40.1861 13.2814 39.9823 13.4458 39.8441C13.6102 39.7059 13.8273 39.6474 14.0388 39.6844C15.3997 39.9219 16.7914 39.9219 18.1523 39.6844C18.3638 39.6474 18.5809 39.7059 18.7453 39.8441C18.9097 39.9823 19.0047 40.1861 19.0047 40.4008V42.0444C19.0047 42.2373 19.0813 42.4223 19.2176 42.5587C19.354 42.695 19.5391 42.7717 19.7319 42.7717H21.1865C21.3793 42.7717 21.5644 42.695 21.7007 42.5587C21.8371 42.4223 21.9137 42.2373 21.9137 42.0444V38.6844C21.9137 38.4346 22.0419 38.2022 22.2532 38.0691C23.6524 37.1877 24.7791 35.9352 25.5082 34.4509C25.6305 34.2021 25.8836 34.0444 26.161 34.0444H28.4592C28.6521 34.0444 28.8371 33.9677 28.9734 33.8314C29.1098 33.695 29.1865 33.51 29.1865 33.3171V30.408C29.1865 30.2152 29.1098 30.0301 28.9734 29.8938C28.8371 29.7574 28.6521 29.6808 28.4592 29.6808H26.6992C26.3766 29.6808 26.0925 29.4682 26.0015 29.1587C25.3985 27.1091 24.0657 25.3512 22.255 24.2172C22.0426 24.0842 21.9137 23.8514 21.9137 23.6008V20.2262Z" fill="#13181B"/>
<path fill-rule="evenodd" clip-rule="evenodd" d="M16.1099 25.8584C14.9608 25.8584 13.8298 26.1424 12.8172 26.6854C12.4632 26.8752 12.0224 26.7423 11.8326 26.3882C11.6428 26.0342 11.7758 25.5935 12.1298 25.4037C13.3538 24.7472 14.721 24.4038 16.1099 24.4038C17.4987 24.4038 18.866 24.7472 20.09 25.4037C20.4439 25.5935 20.577 26.0342 20.3872 26.3882C20.1973 26.7423 19.7565 26.8752 19.4026 26.6854C18.3899 26.1424 17.2589 25.8584 16.1099 25.8584Z" fill="#13181B"/>
<path d="M35.9352 13.7046C36.2425 13.2706 36.6339 12.9027 37.0862 12.6229C37.5384 12.343 38.0422 12.1569 38.5679 12.0755C38.9129 12.0716 39.2553 12.136 39.5753 12.265C39.8955 12.3939 40.1868 12.5849 40.4329 12.8268C40.6789 13.0688 40.8747 13.357 41.0089 13.6749C41.1432 13.9928 41.2133 14.3341 41.2152 14.6792C41.2152 17.2828 38.5679 17.5883 35.9352 21.8355C33.2879 17.6028 30.6406 17.2828 30.6406 14.6792C30.6483 13.9834 30.931 13.319 31.4271 12.8311C31.9231 12.3433 32.592 12.0716 33.2879 12.0755C33.8153 12.1574 34.3211 12.3437 34.7756 12.6234C35.2302 12.9031 35.6243 13.2707 35.9352 13.7046Z" fill="#005984"/>
</svg>
