<svg width="24" height="24" viewBox="0 0 24 24" fill="none" xmlns="http://www.w3.org/2000/svg">
<path d="M11.3976 20.6427C16.0593 20.6427 19.8383 16.8637 19.8383 12.2019C19.8383 7.54023 16.0593 3.7612 11.3976 3.7612C6.7359 3.7612 2.95685 7.54023 2.95685 12.2019C2.95685 16.8637 6.7359 20.6427 11.3976 20.6427Z" fill="#008DD1"/>
<path fill-rule="evenodd" clip-rule="evenodd" d="M1.13866 14.1131C1.3395 14.1131 1.5023 14.2759 1.5023 14.4767C1.5023 14.766 1.61724 15.0436 1.82182 15.2482C2.02641 15.4527 2.30388 15.5676 2.59321 15.5676C2.79404 15.5676 2.95684 15.7305 2.95684 15.9313C2.95684 16.1322 2.79404 16.2949 2.59321 16.2949C2.111 16.2949 1.64854 16.1034 1.30756 15.7624C0.966588 15.4214 0.775024 14.959 0.775024 14.4767C0.775024 14.2759 0.937832 14.1131 1.13866 14.1131Z" fill="#005984"/>
<path d="M14.8121 14.6359H13.153V17.2722H14.8121V14.6359Z" fill="white"/>
<path d="M11.0665 19.0539H9.40741V21.6903H11.0665V19.0539Z" fill="white"/>
<path d="M6.70267 18.9313H5.04358V21.5676H6.70267V18.9313Z" fill="white"/>
<path d="M10.9832 10.0376L11.2088 12.3501L9.01721 11.276L10.9832 10.0376Z" fill="white"/>
<path d="M8.05504 20.3721C11.1134 20.3721 13.5927 18.2892 13.5927 15.7199C13.5927 13.1505 11.1134 11.0677 8.05504 11.0677C4.99668 11.0677 2.5174 13.1505 2.5174 15.7199C2.5174 18.2892 4.99668 20.3721 8.05504 20.3721Z" fill="white"/>
<path fill-rule="evenodd" clip-rule="evenodd" d="M10.8916 9.38881C11.026 9.37667 11.1613 9.40219 11.2821 9.46263C11.4029 9.52299 11.5045 9.61587 11.5755 9.73078C11.6465 9.84569 11.6841 9.97805 11.6841 10.1131V11.6039C12.5778 12.2146 13.2535 13.0938 13.614 14.1131H14.2296C14.5189 14.1131 14.7964 14.2281 15.0009 14.4327C15.2056 14.6372 15.3205 14.9147 15.3205 15.204V16.6586C15.3205 16.9479 15.2056 17.2254 15.0009 17.43C14.7964 17.6346 14.5189 17.7495 14.2296 17.7495H13.3014C12.9102 18.4642 12.3562 19.0771 11.6841 19.5382V21.0222C11.6841 21.3115 11.5692 21.589 11.3646 21.7936C11.16 21.9982 10.8825 22.1131 10.5932 22.1131H9.86596C9.57666 22.1131 9.29913 21.9982 9.09455 21.7936C8.88997 21.589 8.77506 21.3115 8.77506 21.0222V20.619C8.29164 20.6717 7.80393 20.6717 7.32051 20.619V21.0222C7.32051 21.3115 7.20556 21.589 7.00098 21.7936C6.79639 21.9982 6.51892 22.1131 6.22959 22.1131H5.50231C5.21299 22.1131 4.93551 21.9982 4.73093 21.7936C4.52634 21.589 4.4114 21.3115 4.4114 21.0222V19.5417C3.78574 19.1247 3.26359 18.5687 2.88636 17.9161C2.4745 17.2036 2.24867 16.3988 2.22969 15.5761L2.22949 15.5676C2.22949 12.7087 4.88671 10.4767 8.04778 10.4767H8.05113C8.41258 10.4801 8.77309 10.5135 9.1288 10.5767L10.5203 9.53143C10.6283 9.45041 10.757 9.40089 10.8916 9.38881ZM10.9569 10.1131L9.43709 11.2548C9.35389 11.3172 9.24793 11.3411 9.14604 11.3203C8.78393 11.2465 8.41564 11.2076 8.04611 11.204C5.18783 11.2048 2.9595 13.2028 2.95687 15.5635C2.9737 16.2627 3.16596 16.9466 3.51601 17.5521C3.86676 18.1589 4.36465 18.6676 4.96376 19.0314C5.07237 19.0973 5.13868 19.2151 5.13868 19.3422V21.0222C5.13868 21.1186 5.17699 21.2111 5.24519 21.2794C5.31338 21.3475 5.40588 21.3858 5.50231 21.3858H6.22959C6.32603 21.3858 6.41853 21.3475 6.48672 21.2794C6.55492 21.2111 6.59322 21.1186 6.59322 21.0222V20.2004C6.59322 20.093 6.64069 19.9911 6.72289 19.922C6.80509 19.853 6.91363 19.8237 7.01941 19.8422C7.69986 19.961 8.39571 19.961 9.07615 19.8422C9.18189 19.8237 9.29047 19.853 9.37266 19.922C9.45484 19.9911 9.50233 20.093 9.50233 20.2004V21.0222C9.50233 21.1186 9.54066 21.2111 9.6088 21.2794C9.67702 21.3475 9.76953 21.3858 9.86596 21.3858H10.5932C10.6897 21.3858 10.7822 21.3475 10.8503 21.2794C10.9185 21.2111 10.9569 21.1186 10.9569 21.0222V19.3422C10.9569 19.2173 11.0209 19.1011 11.1266 19.0346C11.8262 18.5938 12.3895 17.9676 12.7541 17.2255C12.8153 17.101 12.9418 17.0222 13.0805 17.0222H14.2296C14.326 17.0222 14.4185 16.9839 14.4867 16.9157C14.5549 16.8475 14.5932 16.755 14.5932 16.6586V15.204C14.5932 15.1076 14.5549 15.0151 14.4867 14.9469C14.4185 14.8787 14.326 14.8404 14.2296 14.8404H13.3496C13.1883 14.8404 13.0463 14.7341 13.0007 14.5794C12.6993 13.5546 12.0329 12.6756 11.1275 12.1086C11.0213 12.0421 10.9569 11.9257 10.9569 11.8004V10.1131Z" fill="#005984"/>
<path fill-rule="evenodd" clip-rule="evenodd" d="M8.05503 12.9292C7.48048 12.9292 6.91495 13.0712 6.40866 13.3427C6.23167 13.4376 6.01126 13.3711 5.91635 13.1941C5.82144 13.0171 5.88797 12.7967 6.06496 12.7018C6.67694 12.3736 7.36055 12.2019 8.05503 12.2019C8.74943 12.2019 9.43306 12.3736 10.0451 12.7018C10.222 12.7967 10.2886 13.0171 10.1936 13.1941C10.0987 13.3711 9.8783 13.4376 9.70135 13.3427C9.19503 13.0712 8.6295 12.9292 8.05503 12.9292Z" fill="#005984"/>
<path d="M17.9678 6.85225C18.1214 6.63525 18.3171 6.45133 18.5433 6.3114C18.7694 6.17148 19.0213 6.07841 19.2841 6.03771C19.4566 6.03579 19.6278 6.06799 19.7878 6.13247C19.9479 6.19694 20.0936 6.29241 20.2166 6.41339C20.3396 6.53437 20.4375 6.67847 20.5046 6.83742C20.5718 6.99636 20.6068 7.167 20.6078 7.33955C20.6078 8.64137 19.2841 8.79409 17.9678 10.9177C16.6441 8.80137 15.3205 8.64137 15.3205 7.33955C15.3244 6.99167 15.4657 6.65948 15.7137 6.41554C15.9617 6.17161 16.2962 6.03577 16.6441 6.03771C16.9078 6.07868 17.1607 6.17182 17.388 6.31167C17.6153 6.45153 17.8123 6.63532 17.9678 6.85225Z" fill="#005984"/>
</svg>
