<svg width="48" height="48" viewBox="0 0 48 48" fill="none" xmlns="http://www.w3.org/2000/svg">
<path fill-rule="evenodd" clip-rule="evenodd" d="M37.8237 26.799C36.6256 27.2514 35.3271 27.4989 33.9708 27.4989C27.9459 27.4989 23.0617 22.6147 23.0617 16.5898C23.0617 15.468 23.231 14.3857 23.5456 13.3671C22.5738 12.1576 18.8084 7.86253 14.3344 7.86253C13.1024 7.85294 11.8805 8.08612 10.7386 8.54877C9.59667 9.01142 8.55703 9.69446 7.6791 10.5589C6.80115 11.4233 6.10208 12.4522 5.62179 13.5868C5.1415 14.7215 4.88941 15.9395 4.87988 17.1717C4.87988 22.2799 7.7224 24.9354 11.8524 28.7938C15.2489 31.9667 19.5159 35.9532 23.7889 42.7862C28.0586 35.9482 32.3281 31.9609 35.7271 28.7868C36.4707 28.0924 37.1725 27.437 37.8237 26.799Z" fill="#008DD1"/>
<path fill-rule="evenodd" clip-rule="evenodd" d="M33.9713 6.40804C28.3481 6.40804 23.7895 10.9666 23.7895 16.5898C23.7895 22.2131 28.3481 26.7716 33.9713 26.7716C39.5946 26.7716 44.1531 22.2131 44.1531 16.5898C44.1531 10.9666 39.5946 6.40804 33.9713 6.40804ZM22.335 16.5898C22.335 10.1633 27.5447 4.95349 33.9713 4.95349C40.3979 4.95349 45.6077 10.1633 45.6077 16.5898C45.6077 23.0164 40.3979 28.2262 33.9713 28.2262C27.5447 28.2262 22.335 23.0164 22.335 16.5898Z" fill="#13181B"/>
<path fill-rule="evenodd" clip-rule="evenodd" d="M39.5785 12.6143C40.1674 13.1606 40.202 14.0809 39.6558 14.6699L34.2595 20.4881C33.9923 20.7761 33.6201 20.9438 33.2273 20.953C32.8345 20.9623 32.4548 20.8123 32.1744 20.5373L28.3344 16.77C27.7609 16.2074 27.7521 15.2864 28.3146 14.713C28.8772 14.1396 29.7983 14.1308 30.3716 14.6934L33.1439 17.4131L37.5229 12.6916C38.0692 12.1026 38.9895 12.068 39.5785 12.6143Z" fill="#005984"/>
</svg>
