<svg width="42" height="42" viewBox="0 0 42 42" fill="none" xmlns="http://www.w3.org/2000/svg">
<path fill-rule="evenodd" clip-rule="evenodd" d="M10.0816 31.155C11.056 30.4736 12.1139 29.9621 13.0918 29.4893C15.052 28.5416 16.6907 27.7493 16.6907 26.0562V25.0455C15.1771 23.3814 14.376 21.1903 14.4594 18.9424C14.4152 18.1391 14.5333 17.3352 14.8068 16.5786C15.0803 15.822 15.5036 15.1283 16.0512 14.539C16.5989 13.9497 17.2597 13.4769 17.9942 13.1487C18.7288 12.8206 19.5219 12.6439 20.3263 12.6293C21.1318 12.6403 21.9267 12.8145 22.6629 13.1413C23.3992 13.4682 24.0615 13.941 24.6099 14.5311C25.1583 15.1212 25.5813 15.8163 25.8535 16.5745C26.1256 17.3328 26.2412 18.1383 26.1932 18.9424C26.2809 21.1847 25.4843 23.3717 23.975 25.0324V26.0562C23.975 27.7493 25.6116 28.5416 27.5692 29.4893C28.545 29.9617 29.6006 30.4727 30.573 31.1532C33.9419 28.2646 36.0763 23.9775 36.0763 19.1918C36.0763 10.4933 29.0248 3.44177 20.3263 3.44177C11.6278 3.44177 4.57629 10.4933 4.57629 19.1918C4.57629 23.9784 6.71159 28.2663 10.0816 31.155Z" fill="#005984"/>
<path d="M29.5138 4.0981C29.9032 3.56906 30.3937 3.1226 30.957 2.78464C31.5202 2.44668 32.145 2.22394 32.795 2.12935C33.2173 2.12064 33.6372 2.19522 34.0307 2.34882C34.4242 2.50243 34.7835 2.73206 35.0882 3.02458C35.393 3.3171 35.6371 3.66679 35.8066 4.05367C35.9761 4.44055 36.0678 4.85704 36.0763 5.27935C36.0763 8.42935 32.795 8.8231 29.5138 13.9418C26.2325 8.8231 22.9513 8.42935 22.9513 5.27935C22.9598 4.85704 23.0515 4.44055 23.221 4.05367C23.3905 3.66679 23.6346 3.3171 23.9393 3.02458C24.244 2.73206 24.6034 2.50243 24.9969 2.34882C25.3904 2.19522 25.8102 2.12064 26.2325 2.12935C26.8826 2.22394 27.5073 2.44668 28.0706 2.78464C28.6339 3.1226 29.1244 3.56906 29.5138 4.0981Z" fill="#008DD1"/>
<path fill-rule="evenodd" clip-rule="evenodd" d="M16.6907 24.4287C17.0531 24.4287 17.3469 24.7225 17.3469 25.085V26.0562C17.3469 27.4433 16.4821 28.3208 15.4598 28.9768C14.9488 29.3047 14.3631 29.6008 13.7681 29.8909C13.6362 29.9551 13.5039 30.0191 13.3711 30.0833C12.8942 30.3139 12.4117 30.5472 11.9265 30.8058C10.6905 31.4646 9.51943 32.2467 8.65257 33.386C7.79627 34.5115 7.20129 36.0331 7.20129 38.2362C7.20129 38.5987 6.90748 38.8925 6.54504 38.8925C6.18261 38.8925 5.88879 38.5987 5.88879 38.2362C5.88879 35.7734 6.56202 33.9661 7.60802 32.5913C8.64347 31.2304 10.0088 30.3407 11.3092 29.6476C11.8195 29.3756 12.3325 29.1276 12.8125 28.8955C12.9419 28.8329 13.069 28.7715 13.193 28.7111C13.7869 28.4216 14.3109 28.1545 14.751 27.8721C15.631 27.3075 16.0344 26.7757 16.0344 26.0562V25.085C16.0344 24.7225 16.3282 24.4287 16.6907 24.4287Z" fill="#13181B"/>
<path fill-rule="evenodd" clip-rule="evenodd" d="M23.9751 24.4287C24.3375 24.4287 24.6313 24.7225 24.6313 25.085V26.0562C24.6313 26.7761 25.0344 27.3079 25.913 27.8723C26.3525 28.1547 26.8758 28.4217 27.4689 28.7112C27.5927 28.7716 27.7196 28.8331 27.8489 28.8957C28.3283 29.1277 28.8407 29.3757 29.3503 29.6477C30.6491 30.3409 32.0128 31.2307 33.0469 32.5916C34.0916 33.9665 34.7638 35.7736 34.7638 38.2362C34.7638 38.5987 34.47 38.8925 34.1076 38.8925C33.7452 38.8925 33.4513 38.5987 33.4513 38.2362C33.4513 36.0329 32.8571 34.5112 32.0019 33.3857C31.1362 32.2464 29.9667 31.4644 28.7324 30.8056C28.2478 30.5471 27.766 30.3138 27.2897 30.0832C27.1571 30.019 27.0249 29.955 26.8932 29.8907C26.2989 29.6006 25.714 29.3045 25.2036 28.9766C24.1823 28.3204 23.3188 27.4429 23.3188 26.0562V25.085C23.3188 24.7225 23.6127 24.4287 23.9751 24.4287Z" fill="#13181B"/>
<path fill-rule="evenodd" clip-rule="evenodd" d="M20.3263 12.6292L20.3143 11.9731C19.4217 11.9893 18.5416 12.1854 17.7265 12.5495C16.9115 12.9136 16.1782 13.4383 15.5705 14.0922C14.9628 14.7462 14.4931 15.5159 14.1896 16.3554C13.8881 17.1895 13.7567 18.0755 13.8032 18.9611C13.8233 23.747 16.5847 27.3161 20.3263 27.3161C24.0658 27.3161 26.8419 23.7498 26.8494 18.9616C26.8996 18.0755 26.771 17.1883 26.4711 16.3528C26.169 15.5111 25.6994 14.7394 25.0906 14.0843C24.4818 13.4292 23.7465 12.9044 22.9292 12.5415C22.1118 12.1786 21.2294 11.9852 20.3352 11.973L20.3263 12.6292ZM20.3278 13.2856C19.6152 13.2999 18.9127 13.4571 18.2619 13.7479C17.6079 14.04 17.0195 14.461 16.5319 14.9857C16.0443 15.5104 15.6675 16.128 15.424 16.8016C15.1804 17.4752 15.0752 18.191 15.1146 18.9062C15.1153 18.9176 15.1156 18.929 15.1156 18.9405C15.1282 23.3336 17.5884 26.0036 20.3263 26.0036C23.0654 26.0036 25.5369 23.332 25.5369 18.9423C25.5369 18.9293 25.5373 18.9163 25.538 18.9032C25.5807 18.1877 25.4779 17.4709 25.2357 16.7962C24.9936 16.1215 24.6171 15.5029 24.1292 14.9778C23.6412 14.4527 23.0518 14.032 22.3966 13.7411C21.7446 13.4516 21.041 13.2967 20.3278 13.2856Z" fill="#13181B"/>
<path d="M20.3264 18.7193C21.2832 18.7193 22.0589 17.9436 22.0589 16.9868C22.0589 16.0299 21.2832 15.2543 20.3264 15.2543C19.3695 15.2543 18.5939 16.0299 18.5939 16.9868C18.5939 17.9436 19.3695 18.7193 20.3264 18.7193Z" fill="#008DD1"/>
</svg>
