<svg width="48" height="48" viewBox="0 0 48 48" fill="none" xmlns="http://www.w3.org/2000/svg">
<path d="M30.5207 10.9386C30.5207 13.2514 29.837 15.1859 28.7461 16.5386V18.7495C28.7461 23.2732 39.2334 22.0223 39.917 31.3314C41.3425 28.8005 42.157 25.8914 42.157 22.7786C42.157 14.1968 35.9607 7.06954 27.7861 5.61499C29.488 6.73499 30.5207 8.72772 30.5207 10.9532V10.9386Z" fill="#005984"/>
<path d="M20.6734 18.735V16.5387C19.5825 15.1859 18.8989 13.2514 18.8989 10.9386C18.8989 8.71319 19.9316 6.72046 21.6334 5.60046C13.459 7.05501 7.24805 14.1823 7.24805 22.7641C7.24805 25.8769 8.06259 28.7859 9.48805 31.3169C10.1571 22.0223 20.6734 23.2587 20.6734 18.735Z" fill="#005984"/>
<path d="M20.6737 15.8267C20.4809 15.8267 20.2959 15.9033 20.1595 16.0397C20.0231 16.1761 19.9465 16.361 19.9465 16.5539V18.7358C19.9465 19.6111 19.4868 20.1288 18.5232 20.7471C17.5596 21.3654 16.1581 21.9444 14.7107 22.7159C13.2632 23.4874 11.7565 24.4682 10.6084 25.9772C9.46028 27.4863 8.70215 29.5157 8.70215 32.2329V42.4005C8.70215 42.5934 8.77877 42.7784 8.91516 42.9148C9.05155 43.0512 9.23654 43.1278 9.42942 43.1278C9.62231 43.1278 9.80729 43.0512 9.94368 42.9148C10.0801 42.7784 10.1567 42.5934 10.1567 42.4005V32.2329C10.1567 29.7792 10.8046 28.1198 11.7646 26.8579C12.7247 25.5961 14.0291 24.7238 15.3925 23.9971C16.7559 23.2704 18.1655 22.706 19.3101 21.9715C20.4547 21.2371 21.401 20.1949 21.401 18.7358V16.5539C21.401 16.361 21.3244 16.1761 21.188 16.0397C21.0516 15.9033 20.8666 15.8267 20.6737 15.8267Z" fill="#13181B"/>
<path d="M28.7478 15.8125C28.5549 15.8125 28.3699 15.8891 28.2335 16.0255C28.0971 16.1619 28.0205 16.3469 28.0205 16.5398V18.7358C28.0205 20.1946 28.9653 21.2371 30.1086 21.9716C31.2518 22.7061 32.6561 23.2705 34.0177 23.9972C35.3793 24.7238 36.6839 25.5961 37.6427 26.858C38.6015 28.1198 39.2478 29.7791 39.2478 32.233V42.4006C39.2478 42.5935 39.3244 42.7784 39.4608 42.9148C39.5972 43.0512 39.7822 43.1278 39.9751 43.1278C40.1679 43.1278 40.3529 43.0512 40.4893 42.9148C40.6257 42.7784 40.7023 42.5935 40.7023 42.4006V32.233C40.7023 29.5159 39.9456 27.4863 38.7989 25.9773C37.6523 24.4682 36.148 23.4874 34.7023 22.7159C33.2566 21.9444 31.8577 21.3654 30.8955 20.7472C29.9333 20.1289 29.4751 19.6116 29.4751 18.7358V16.5398C29.4751 16.3469 29.3984 16.1619 29.262 16.0255C29.1257 15.8891 28.9407 15.8125 28.7478 15.8125Z" fill="#13181B"/>
<path d="M15.2478 35.8551C15.1523 35.8551 15.0577 35.8739 14.9695 35.9105C14.8812 35.947 14.8011 36.0006 14.7335 36.0681C14.666 36.1356 14.6124 36.2158 14.5759 36.3041C14.5393 36.3923 14.5205 36.4869 14.5205 36.5824V42.4006C14.5205 42.4961 14.5393 42.5906 14.5759 42.6789C14.6124 42.7671 14.666 42.8473 14.7335 42.9148C14.8011 42.9824 14.8812 43.0359 14.9695 43.0725C15.0577 43.109 15.1523 43.1278 15.2478 43.1278C15.4407 43.1278 15.6257 43.0512 15.762 42.9148C15.8984 42.7784 15.9751 42.5934 15.9751 42.4006V36.5824C15.9751 36.3895 15.8984 36.2045 15.762 36.0681C15.6257 35.9317 15.4407 35.8551 15.2478 35.8551Z" fill="#13181B"/>
<path d="M34.157 35.8551C33.9641 35.8551 33.7791 35.9317 33.6427 36.0681C33.5063 36.2045 33.4297 36.3895 33.4297 36.5824V42.4006C33.4297 42.5934 33.5063 42.7784 33.6427 42.9148C33.7791 43.0512 33.9641 43.1278 34.157 43.1278C34.3498 43.1278 34.5348 43.0512 34.6712 42.9148C34.8076 42.7784 34.8842 42.5934 34.8842 42.4006V36.5824C34.8842 36.3895 34.8076 36.2045 34.6712 36.0681C34.5348 35.9317 34.3498 35.8551 34.157 35.8551Z" fill="#13181B"/>
<path d="M34.5208 31.3894C34.4044 31.4621 34.2735 31.4912 34.1572 31.4912C33.9099 31.4912 33.6626 31.3603 33.5317 31.1276C33.4299 30.9531 31.1608 27.1567 26.1572 26.5021V42.4003C26.1572 43.2003 25.5026 43.8549 24.7026 43.8549C23.9026 43.8549 23.2481 43.2003 23.2481 42.4003V26.5021C18.2444 27.1421 15.9754 30.9531 15.8735 31.1276C15.6844 31.4767 15.2335 31.5931 14.8844 31.3894C14.5354 31.2003 14.419 30.7494 14.6226 30.4003C14.739 30.1967 17.3863 25.7021 23.2481 25.0331V18.3567C23.7135 18.5167 24.1935 18.5894 24.7026 18.5894C25.2117 18.5894 25.6917 18.5167 26.1572 18.3567V25.0331C32.019 25.7021 34.6663 30.1967 34.7826 30.4003C34.9863 30.7494 34.8699 31.2003 34.5208 31.3894Z" fill="#008DD1"/>
<path d="M24.7017 3.9574C20.7939 3.9574 18.1563 7.25689 18.1563 10.9375C18.1562 10.9385 18.1562 10.9394 18.1563 10.9404C18.164 13.3556 18.8605 15.4287 20.0313 16.9205C21.202 18.4122 22.8732 19.3182 24.7017 19.3182C26.5375 19.3182 28.2127 18.4086 29.3835 16.9148C30.5544 15.4209 31.2472 13.3465 31.2472 10.9375C31.2472 7.25688 28.6095 3.9574 24.7017 3.9574V3.9574ZM24.7017 5.41195C27.8048 5.41195 29.7926 7.92724 29.7926 10.9375C29.7926 13.0668 29.1769 14.82 28.2386 16.0171C27.3004 17.2141 26.0659 17.8637 24.7017 17.8637C23.3448 17.8637 22.1145 17.2183 21.1761 16.0227C20.2378 14.8272 19.6176 13.075 19.6108 10.9375C19.6108 7.92724 21.5986 5.41195 24.7017 5.41195V5.41195Z" fill="#13181B"/>
<path d="M34.1574 32.9459C35.3625 32.9459 36.3392 31.969 36.3392 30.7641C36.3392 29.559 35.3625 28.5823 34.1574 28.5823C32.9525 28.5823 31.9756 29.559 31.9756 30.7641C31.9756 31.969 32.9525 32.9459 34.1574 32.9459Z" fill="#005984"/>
<path d="M15.2482 32.9459C16.4532 32.9459 17.43 31.969 17.43 30.7641C17.43 29.559 16.4532 28.5823 15.2482 28.5823C14.0432 28.5823 13.0664 29.559 13.0664 30.7641C13.0664 31.969 14.0432 32.9459 15.2482 32.9459Z" fill="#005984"/>
<path d="M27.6116 30.0369H21.7934C20.9902 30.0369 20.3389 30.6881 20.3389 31.4914C20.3389 32.2948 20.9902 32.946 21.7934 32.946H27.6116C28.4149 32.946 29.0661 32.2948 29.0661 31.4914C29.0661 30.6881 28.4149 30.0369 27.6116 30.0369Z" fill="#005984"/>
<path d="M27.6116 37.3096H21.7934C20.9902 37.3096 20.3389 37.9608 20.3389 38.7641C20.3389 39.5675 20.9902 40.2187 21.7934 40.2187H27.6116C28.4149 40.2187 29.0661 39.5675 29.0661 38.7641C29.0661 37.9608 28.4149 37.3096 27.6116 37.3096Z" fill="#005984"/>
</svg>
