<svg width="48" height="48" viewBox="0 0 48 48" fill="none" xmlns="http://www.w3.org/2000/svg">
<path d="M9.64776 37.0041C9.64776 35.4041 10.3023 33.8623 11.4659 32.7568L13.9387 30.415L14.8842 25.6877C15.1315 24.4223 16.1933 23.4768 17.4733 23.3604C18.826 23.2441 20.7896 23.1423 23.5096 23.1423C26.2296 23.1423 28.1933 23.2441 29.546 23.3604C30.8405 23.4768 31.8878 24.4223 32.1351 25.6877L33.0805 30.415L35.5533 32.7568C36.7169 33.8623 37.3714 35.3895 37.3569 37.0041V37.0477C40.4842 33.6732 42.4187 29.1641 42.4187 24.2041C42.4187 13.7604 33.9533 5.29492 23.5096 5.29492C13.0659 5.29492 4.58594 13.7749 4.58594 24.2186C4.58594 29.1786 6.52048 33.6877 9.64776 37.0623V37.0186V37.0041Z" fill="#005984"/>
<path d="M23.466 22.4147C20.7278 22.4147 18.6749 22.5171 17.3637 22.6363C15.7661 22.7816 14.4373 23.9651 14.1279 25.5483L13.2274 30.0454L10.9234 32.2301C10.9224 32.2301 10.9215 32.2301 10.9205 32.2301C9.73499 33.3564 9.10502 34.8983 8.9802 36.5113C8.96853 36.5344 8.9581 36.5581 8.94895 36.5824V36.6562C8.94244 36.7757 8.87793 36.8827 8.87793 37.0028C8.89427 37.0624 8.91813 37.1197 8.94895 37.1733V42.4005C8.94895 43.6047 9.94289 44.5824 11.1308 44.5824H12.5995C13.7962 44.5824 14.7813 43.5972 14.7813 42.4005C14.7813 41.9972 15.1053 41.6733 15.5086 41.6733H31.4944C31.8977 41.6733 32.2217 41.9972 32.2217 42.4005C32.2217 43.5884 33.1926 44.5824 34.3893 44.5824H35.8296C37.0254 44.5824 38.0099 43.5988 38.0115 42.4034V42.4005L38.0399 37.0113C38.0562 35.1961 37.3189 33.472 36.0115 32.23C36.0105 32.23 36.0095 32.23 36.0085 32.23L33.7046 30.0454L32.8041 25.5483V25.5454C32.499 23.9898 31.2222 22.7788 29.5654 22.6363C28.1889 22.5179 26.2041 22.4147 23.466 22.4147V22.4147ZM23.466 23.8693C26.1678 23.8693 28.1115 23.9709 29.4404 24.0852C30.4882 24.1753 31.1876 24.8526 31.3779 25.8267C31.3779 25.8276 31.3779 25.8286 31.3779 25.8296L32.3239 30.5569C32.3533 30.7046 32.4277 30.8396 32.537 30.9432L35.0086 33.2841C36.0285 34.253 36.598 35.5833 36.5853 36.9972C36.5853 36.9982 36.5853 36.9991 36.5853 37.0001L36.5569 42.3978C36.5569 42.3988 36.5569 42.3998 36.5569 42.4007C36.5569 42.804 36.2329 43.128 35.8296 43.128H34.3893C33.986 43.128 33.6762 42.8129 33.6762 42.4007C33.6762 41.204 32.6911 40.2189 31.4944 40.2189H15.5086C14.3119 40.2189 13.3268 41.204 13.3268 42.4007C13.3268 42.804 13.0028 43.128 12.5995 43.128H11.1308C10.7186 43.128 10.4035 42.8257 10.4035 42.4007V36.6564C10.4926 35.3849 10.993 34.1681 11.9234 33.2843L14.395 30.9434C14.5043 30.8397 14.5787 30.7047 14.608 30.557L15.5541 25.8297C15.5541 25.8287 15.5541 25.8278 15.5541 25.8268C15.7393 24.879 16.532 24.1728 17.4944 24.0853C18.7432 23.9718 20.7641 23.8694 23.466 23.8694V23.8693Z" fill="#13181B"/>
<path d="M31.3073 34.4005C29.4137 34.4005 27.8584 35.9529 27.8584 37.8465V38.0369C27.8584 38.2298 27.935 38.4147 28.0714 38.5511C28.2078 38.6875 28.3928 38.7641 28.5857 38.7641H34.4039C34.5967 38.7641 34.7817 38.6875 34.9181 38.5511C35.0545 38.4147 35.1311 38.2298 35.1311 38.0369V35.1278C35.1311 34.9349 35.0545 34.7499 34.9181 34.6135C34.7817 34.4772 34.5967 34.4005 34.4039 34.4005H31.3073ZM31.3073 35.8551H33.6766V37.3096H29.5345C29.7891 36.5024 30.4146 35.8551 31.3073 35.8551Z" fill="#13181B"/>
<path d="M12.5857 34.4005C12.3928 34.4005 12.2078 34.4772 12.0714 34.6135C11.935 34.7499 11.8584 34.9349 11.8584 35.1278V38.0369C11.8584 38.2298 11.935 38.4147 12.0714 38.5511C12.2078 38.6875 12.3928 38.7641 12.5857 38.7641H18.4039C18.5967 38.7641 18.7817 38.6875 18.9181 38.5511C19.0545 38.4147 19.1311 38.2298 19.1311 38.0369V37.8465C19.1311 35.9529 17.5787 34.4005 15.6851 34.4005H12.5857ZM13.3129 35.8551H15.6851C16.5778 35.8551 17.2004 36.5024 17.455 37.3096H13.3129V35.8551Z" fill="#13181B"/>
<path d="M10.4177 27.1278C10.2248 27.1278 10.0398 27.2044 9.90344 27.3408C9.76705 27.4772 9.69043 27.6622 9.69043 27.8551C9.69043 28.048 9.76705 28.233 9.90344 28.3693C10.0398 28.5057 10.2248 28.5824 10.4177 28.5824H11.4802C11.6517 28.5824 11.898 28.6922 12.1393 29.0909C12.1412 29.0937 12.1431 29.0966 12.145 29.0995L13.4234 31.1478C13.4885 31.2527 13.5793 31.3393 13.6871 31.3994C13.795 31.4596 13.9164 31.4913 14.0399 31.4915H32.9632C33.0871 31.4917 33.2091 31.4603 33.3175 31.4001C33.4259 31.3399 33.5171 31.2531 33.5825 31.1478L34.8609 29.0995C34.8628 29.0966 34.8647 29.0937 34.8666 29.0909C35.1078 28.6922 35.3542 28.5824 35.5257 28.5824H36.5853C36.7782 28.5824 36.9632 28.5057 37.0996 28.3693C37.236 28.233 37.3126 28.048 37.3126 27.8551C37.3126 27.6622 37.236 27.4772 37.0996 27.3408C36.9632 27.2044 36.7782 27.1278 36.5853 27.1278H35.5257C34.7371 27.1278 34.0501 27.6284 33.6222 28.3352L32.5597 30.0369H14.4433L13.3836 28.3352C12.9558 27.6284 12.2687 27.1278 11.4802 27.1278H10.4177Z" fill="#13181B"/>
<path d="M27.8591 2.40039H19.1318V19.855H23.4955V14.0368H27.8591C31.0737 14.0368 33.6773 11.4331 33.6773 8.21857C33.6773 5.00403 31.0737 2.40039 27.8591 2.40039ZM27.8591 9.67312H23.4955V6.76403H27.8591C28.6591 6.76403 29.3137 7.41857 29.3137 8.21857C29.3137 9.01857 28.6591 9.67312 27.8591 9.67312Z" fill="#008DD1"/>
</svg>
