<svg width="24" height="24" viewBox="0 0 24 24" fill="none" xmlns="http://www.w3.org/2000/svg">
<path d="M21.1479 15.75H3.14795V18.75H21.1479V15.75Z" fill="#005984"/>
<path fill-rule="evenodd" clip-rule="evenodd" d="M5.77295 9C4.3232 9 3.14795 10.1753 3.14795 11.625V19.125C3.14795 20.5747 4.3232 21.75 5.77295 21.75H18.5229C19.9727 21.75 21.1479 20.5747 21.1479 19.125V11.625C21.1479 10.1753 19.9727 9 18.5229 9H5.77295ZM2.39795 11.625C2.39795 9.76104 3.90899 8.25 5.77295 8.25H18.5229C20.3869 8.25 21.8979 9.76104 21.8979 11.625V19.125C21.8979 20.989 20.3869 22.5 18.5229 22.5H5.77295C3.90899 22.5 2.39795 20.989 2.39795 19.125V11.625Z" fill="#005984"/>
<path d="M19.2729 13.5C21.5511 13.5 23.3979 11.6532 23.3979 9.375C23.3979 7.09683 21.5511 5.25 19.2729 5.25C16.9948 5.25 15.1479 7.09683 15.1479 9.375C15.1479 11.6532 16.9948 13.5 19.2729 13.5Z" fill="#005984"/>
<path d="M12.5229 6.75C13.9727 6.75 15.1479 5.57475 15.1479 4.125C15.1479 2.67525 13.9727 1.5 12.5229 1.5C11.0732 1.5 9.89795 2.67525 9.89795 4.125C9.89795 5.57475 11.0732 6.75 12.5229 6.75Z" fill="#008DD1"/>
</svg>
