<svg width="42" height="42" viewBox="0 0 42 42" fill="none" xmlns="http://www.w3.org/2000/svg">
<path fill-rule="evenodd" clip-rule="evenodd" d="M19.3988 19.7612C21.6084 16.7186 22.7762 13.3754 23.3859 10.5H35.1488V15.7237L33.8363 15.7258V32.6156C33.8415 32.9843 33.7734 33.3504 33.6359 33.6925C33.4984 34.0347 33.2943 34.3461 33.0354 34.6087C32.7765 34.8712 32.468 35.0797 32.1278 35.222C31.7876 35.3643 31.4225 35.4375 31.0538 35.4375H22.1813C21.4433 35.4375 20.7356 35.1444 20.2138 34.6225C19.692 34.1007 19.3988 33.393 19.3988 32.655V19.7612Z" fill="#008DD1"/>
<path d="M29.8593 28.875C32.0557 28.875 33.8362 27.1121 33.8362 24.9375C33.8362 22.7629 32.0557 21 29.8593 21C27.663 21 25.8824 22.7629 25.8824 24.9375C25.8824 27.1121 27.663 28.875 29.8593 28.875Z" fill="#86C5F3"/>
<path d="M18.6637 21C22.6505 21 25.8824 17.7681 25.8824 13.7812C25.8824 9.79444 22.6505 6.5625 18.6637 6.5625C14.6769 6.5625 11.4449 9.79444 11.4449 13.7812C11.4449 17.7681 14.6769 21 18.6637 21Z" fill="#005984"/>
<path fill-rule="evenodd" clip-rule="evenodd" d="M11.4449 29.2031C13.4383 29.2031 15.0543 27.5872 15.0543 25.5938C15.0543 23.6003 13.4383 21.9844 11.4449 21.9844C9.45154 21.9844 7.83557 23.6003 7.83557 25.5938C7.83557 27.5872 9.45154 29.2031 11.4449 29.2031ZM16.0387 25.5938C16.0387 28.1308 13.982 30.1875 11.4449 30.1875C8.90789 30.1875 6.8512 28.1308 6.8512 25.5938C6.8512 23.0567 8.90789 21 11.4449 21C13.982 21 16.0387 23.0567 16.0387 25.5938Z" fill="#008DD1"/>
</svg>
