<svg width="48" height="48" viewBox="0 0 48 48" fill="none" xmlns="http://www.w3.org/2000/svg">
<path fill-rule="evenodd" clip-rule="evenodd" d="M22.1699 22.5843C24.6952 19.107 26.0298 15.2861 26.7266 12H40.1699V17.97L38.6699 17.9723V37.275C38.6759 37.6964 38.598 38.1147 38.4409 38.5058C38.2838 38.8968 38.0505 39.2527 37.7546 39.5528C37.4587 39.8528 37.1061 40.0911 36.7173 40.2537C36.3286 40.4163 35.9113 40.5001 35.4899 40.5H25.3499C24.5065 40.5 23.6977 40.165 23.1013 39.5686C22.505 38.9722 22.1699 38.1634 22.1699 37.32V22.5843Z" fill="#008DD1"/>
<path d="M34.1251 33C36.6352 33 38.6701 30.9853 38.6701 28.5C38.6701 26.0147 36.6352 24 34.1251 24C31.6149 24 29.5801 26.0147 29.5801 28.5C29.5801 30.9853 31.6149 33 34.1251 33Z" fill="#6CC199"/>
<path d="M21.3301 24C25.8864 24 29.5801 20.3063 29.5801 15.75C29.5801 11.1937 25.8864 7.5 21.3301 7.5C16.7737 7.5 13.0801 11.1937 13.0801 15.75C13.0801 20.3063 16.7737 24 21.3301 24Z" fill="#005984"/>
<path fill-rule="evenodd" clip-rule="evenodd" d="M13.0801 33.375C15.3583 33.375 17.2051 31.5282 17.2051 29.25C17.2051 26.9718 15.3583 25.125 13.0801 25.125C10.8019 25.125 8.95508 26.9718 8.95508 29.25C8.95508 31.5282 10.8019 33.375 13.0801 33.375ZM18.3301 29.25C18.3301 32.1495 15.9796 34.5 13.0801 34.5C10.1806 34.5 7.83008 32.1495 7.83008 29.25C7.83008 26.3505 10.1806 24 13.0801 24C15.9796 24 18.3301 26.3505 18.3301 29.25Z" fill="#13181B"/>
</svg>
