<svg width="12" height="12" viewBox="0 0 12 12" fill="none" xmlns="http://www.w3.org/2000/svg">
<path fill-rule="evenodd" clip-rule="evenodd" d="M6.70542 0.429434L8.24415 3.75243H11.2378C11.5471 3.74027 11.8307 3.92404 11.9466 4.2117C12.0625 4.49936 11.9857 4.82897 11.7547 5.03543L9.1602 7.59743L10.6001 10.9114C10.729 11.2225 10.6457 11.5814 10.3931 11.8035C10.1404 12.0257 9.7746 12.0619 9.48351 11.8934L6.00392 9.93243L2.52033 11.8934C2.22925 12.0619 1.86341 12.0257 1.61077 11.8035C1.35812 11.5814 1.27484 11.2225 1.40371 10.9114L2.84365 7.59943L0.249169 5.03743C0.0162682 4.83247 -0.0626737 4.50278 0.0520556 4.21423C0.166785 3.92567 0.450343 3.74073 0.760081 3.75243H3.75371L5.29044 0.429434C5.42811 0.165467 5.70072 0 5.99793 0C6.29515 0 6.56775 0.165467 6.70542 0.429434Z" fill="#FCCA46"/>
</svg>
