<svg width="42" height="42" viewBox="0 0 42 42" fill="none" xmlns="http://www.w3.org/2000/svg">
<g clip-path="url(#clip0_2_85)">
<path fill-rule="evenodd" clip-rule="evenodd" d="M36.2381 17.0625H39.375V24.9375H36.2381C35.8562 26.3606 35.2822 27.725 34.5319 28.9931L36.75 31.2113L31.2112 36.75L28.9931 34.5581C27.7236 35.2993 26.3592 35.8645 24.9375 36.2381V39.375H17.0625V36.2381C15.6394 35.8562 14.275 35.2822 13.0069 34.5319L10.7888 36.75L5.25 31.2113L7.44187 28.9931C6.70071 27.7236 6.13553 26.3592 5.76187 24.9375H2.625V17.0625H5.76187C6.1438 15.6394 6.71784 14.275 7.46813 13.0069L5.25 10.7888L10.7888 5.25L13.0069 7.44188C14.2764 6.70071 15.6408 6.13553 17.0625 5.76187V2.625H24.9375V5.76187C26.3606 6.1438 27.725 6.71783 28.9931 7.46813L31.2112 5.25L36.75 10.7888L34.5581 13.0069C35.2993 14.2764 35.8645 15.6408 36.2381 17.0625ZM32.1562 21C32.1562 27.1614 27.1614 32.1562 21 32.1562C14.8386 32.1562 9.84375 27.1614 9.84375 21C9.84375 14.8386 14.8386 9.84375 21 9.84375C27.1614 9.84375 32.1562 14.8386 32.1562 21Z" fill="#005984"/>
<path fill-rule="evenodd" clip-rule="evenodd" d="M21 10.5C15.201 10.5 10.5 15.201 10.5 21C10.5 26.799 15.201 31.5 21 31.5C26.799 31.5 31.5 26.799 31.5 21C31.5 15.201 26.799 10.5 21 10.5ZM9.1875 21C9.1875 14.4761 14.4761 9.1875 21 9.1875C27.5239 9.1875 32.8125 14.4761 32.8125 21C32.8125 27.5239 27.5239 32.8125 21 32.8125C14.4761 32.8125 9.1875 27.5239 9.1875 21Z" fill="#13181B"/>
<path d="M21 17.4825C21 17.4825 22.6144 15.2382 24.6094 15.2382C25.5666 15.2382 26.4847 15.6184 27.1616 16.2953C27.8385 16.9722 28.2188 17.8903 28.2188 18.8475C28.2188 22.4569 24.6094 22.9032 21 28.77C17.3906 22.9032 13.7812 22.4569 13.7812 18.8475C13.7812 17.8903 14.1615 16.9722 14.8384 16.2953C15.5153 15.6184 16.4334 15.2382 17.3906 15.2382C19.3856 15.2382 21 17.4825 21 17.4825Z" fill="#008DD1"/>
</g>
<defs>
<clipPath id="clip0_2_85">
<rect width="42" height="42" fill="white"/>
</clipPath>
</defs>
</svg>
