<svg width="42" height="42" viewBox="0 0 42 42" fill="none" xmlns="http://www.w3.org/2000/svg">
<path d="M8.06144 7.19141C5.88697 7.19141 4.11649 8.96189 4.11649 11.1364V27.4283C4.11649 29.6027 5.88697 31.3732 8.06144 31.3732H16.8438V34.4531C16.8438 36.2724 15.3793 37.7369 13.56 37.7369H9.84376C9.67498 37.7369 9.51312 37.8039 9.39378 37.9232C9.27444 38.0426 9.20739 38.2044 9.20739 38.3732C9.20739 38.542 9.27444 38.7039 9.39378 38.8232C9.51312 38.9425 9.67498 39.0096 9.84376 39.0096H13.56C16.068 39.0096 18.1165 36.9611 18.1165 34.4531V30.7369C18.1165 30.5681 18.0494 30.4062 17.9301 30.2869C17.8107 30.1676 17.6489 30.1005 17.4801 30.1005H8.06144C6.57047 30.1005 5.38921 28.9192 5.38921 27.4283V11.1364C5.38921 9.64539 6.57047 8.46413 8.06144 8.46413H33.2624C34.7534 8.46413 35.9347 9.64539 35.9347 11.1364V27.4283C35.9347 28.9192 34.7534 30.1005 33.2624 30.1005H23.8438C23.675 30.1005 23.5131 30.1676 23.3938 30.2869C23.2745 30.4062 23.2074 30.5681 23.2074 30.7369V34.4531C23.2074 36.9611 25.2558 39.0096 27.7639 39.0096H31.4801C31.6489 39.0096 31.8108 38.9425 31.9301 38.8232C32.0494 38.7039 32.1165 38.542 32.1165 38.3732C32.1165 38.2044 32.0494 38.0426 31.9301 37.9232C31.8108 37.8039 31.6489 37.7369 31.4801 37.7369H27.7639C25.9446 37.7369 24.4801 36.2724 24.4801 34.4531V31.3732H33.2624C35.4369 31.3732 37.2074 29.6027 37.2074 27.4283V11.1364C37.2074 8.96189 35.4369 7.19141 33.2624 7.19141H8.06144Z" fill="#13181B"/>
<path d="M17.2503 17.2841V16.8132C17.8739 16.1768 18.2812 15.1841 18.2812 13.9623C18.2812 12.3841 17.1994 11.0095 15.5703 11.0095C13.9412 11.0095 12.8594 12.3841 12.8594 13.9623C12.8594 15.1841 13.2667 16.1768 13.8903 16.8132V17.2841C13.8903 19.2823 9.2066 18.6332 9.2066 23.0496V26.2823H21.9339V23.0496C21.9339 18.6332 17.2503 19.2823 17.2503 17.2841Z" fill="#005984"/>
<path d="M4.75285 25.0096C4.58408 25.0096 4.42221 25.0767 4.30287 25.196C4.18353 25.3154 4.11649 25.4772 4.11649 25.646C4.11649 25.8148 4.18353 25.9766 4.30287 26.096C4.42221 26.2153 4.58408 26.2824 4.75285 26.2824H36.571C36.7398 26.2824 36.9017 26.2153 37.021 26.096C37.1403 25.9766 37.2074 25.8148 37.2074 25.646C37.2074 25.4772 37.1403 25.3154 37.021 25.196C36.9017 25.0767 36.7398 25.0096 36.571 25.0096H4.75285Z" fill="#13181B"/>
<path d="M34.6612 2.75415H27.0248C24.2121 2.75415 21.9339 5.03233 21.9339 7.84506V10.3905C21.9339 13.2032 24.2121 15.4814 27.0248 15.4814C27.763 15.4814 28.2467 16.2832 27.8903 16.9196C27.063 18.4214 25.7521 19.2996 25.7521 19.2996C28.4885 19.2996 30.6776 18.2305 32.0012 16.5505C32.5103 15.9014 33.2485 15.4814 34.0757 15.4814H34.6612C37.4739 15.4814 39.7521 13.2032 39.7521 10.3905V7.84506C39.7521 5.03233 37.4739 2.75415 34.6612 2.75415Z" fill="#008DD1"/>
<path d="M30.8437 11.1364C30.6964 11.1374 30.5552 11.1959 30.4503 11.2994C30.3454 11.403 30.285 11.5433 30.282 11.6907C30.1932 11.8244 29.9688 11.8263 29.9688 11.9989C29.9688 12.4817 30.3792 12.864 30.8437 12.864C31.3083 12.864 31.7187 12.4817 31.7187 11.9989C31.7187 11.8263 31.4943 11.8244 31.4055 11.6907C31.4025 11.5433 31.3421 11.403 31.2372 11.2994C31.1323 11.1959 30.9911 11.1374 30.8437 11.1364Z" fill="#005984"/>
<path d="M30.8438 5.72729C28.9681 5.72729 27.0912 6.32843 25.544 7.5295C25.4852 7.57512 25.4359 7.63192 25.399 7.69663C25.3622 7.76134 25.3384 7.83269 25.3292 7.90658C25.32 7.98048 25.3254 8.05548 25.3452 8.12727C25.365 8.19906 25.3988 8.26624 25.4446 8.32495C25.5367 8.4431 25.6719 8.51991 25.8205 8.53855C25.9692 8.55719 26.1191 8.51613 26.2376 8.42438C28.9192 6.34256 32.7658 6.34256 35.4474 8.42438C35.5659 8.51613 35.7158 8.55719 35.8645 8.53855C36.0131 8.51991 36.1483 8.4431 36.2404 8.32495C36.2862 8.26624 36.32 8.19906 36.3398 8.12727C36.3596 8.05548 36.365 7.98048 36.3558 7.90658C36.3466 7.83269 36.3228 7.76134 36.286 7.69663C36.2491 7.63192 36.1998 7.57512 36.141 7.5295C34.5939 6.32843 32.7195 5.72729 30.8438 5.72729Z" fill="#005984"/>
<path d="M30.8438 8.3125C29.6988 8.3125 28.5528 8.6797 27.6073 9.41371C27.4891 9.50581 27.4123 9.641 27.3937 9.78964C27.375 9.93828 27.4161 10.0883 27.5078 10.2067C27.5996 10.3252 27.7346 10.4025 27.8832 10.4216C28.0319 10.4407 28.1821 10.4001 28.3008 10.3086C29.7792 9.16088 31.906 9.15842 33.3842 10.3061C33.5027 10.3979 33.6526 10.4389 33.8013 10.4203C33.9499 10.4016 34.0851 10.3248 34.1772 10.2067C34.269 10.0883 34.31 9.93829 34.2914 9.78964C34.2727 9.641 34.1959 9.50581 34.0778 9.41371C33.1323 8.67969 31.9887 8.3125 30.8438 8.3125Z" fill="#005984"/>
</svg>
