<svg width="42" height="42" viewBox="0 0 42 42" fill="none" xmlns="http://www.w3.org/2000/svg">
<path fill-rule="evenodd" clip-rule="evenodd" d="M36.9573 21.7889C36.5032 30.5135 29.285 37.4481 20.4472 37.4481C11.5396 37.4481 4.2773 30.4034 3.92767 21.5815C5.87034 23.7491 12.5322 30.4608 20.5363 30.4608C28.3001 30.4608 34.801 24.1461 36.9573 21.7889ZM36.9573 20.0419C34.801 17.6846 28.3001 11.3699 20.5363 11.3699C12.5322 11.3699 5.87034 18.0817 3.92767 20.2491C4.27732 11.4272 11.5396 4.38263 20.4472 4.38263C29.285 4.38263 36.5031 11.3171 36.9573 20.0419Z" fill="#008DD1"/>
<path d="M20.5351 10.7337C10.5655 10.7337 2.85864 20.5178 2.85864 20.5178C2.76828 20.6307 2.71906 20.7709 2.71906 20.9155C2.71906 21.0601 2.76828 21.2004 2.85864 21.3132C2.85864 21.3132 10.5655 31.0973 20.5351 31.0973C30.5048 31.0973 38.2141 21.3132 38.2141 21.3132C38.3045 21.2004 38.3537 21.0601 38.3537 20.9155C38.3537 20.7709 38.3045 20.6307 38.2141 20.5178C38.2141 20.5178 30.5048 10.7337 20.5351 10.7337ZM20.5351 12.0064C29.2669 12.0064 36.1944 20.1873 36.8022 20.9155C36.1944 21.6438 29.2669 29.8246 20.5351 29.8246C11.8035 29.8246 4.8785 21.6439 4.27057 20.9155C4.8785 20.1871 11.8035 12.0064 20.5351 12.0064Z" fill="#005984"/>
<path d="M20.4473 27.279C23.9618 27.279 26.8109 24.4299 26.8109 20.9154C26.8109 17.4008 23.9618 14.5518 20.4473 14.5518C16.9327 14.5518 14.0836 17.4008 14.0836 20.9154C14.0836 24.4299 16.9327 27.279 20.4473 27.279Z" fill="#005984"/>
</svg>
