<svg width="48" height="48" viewBox="0 0 48 48" fill="none" xmlns="http://www.w3.org/2000/svg">
<path d="M8.87766 8.21875C6.39255 8.21875 4.36914 10.2422 4.36914 12.7273V31.3466C4.36914 33.8317 6.39255 35.8551 8.87766 35.8551H18.9146V39.375C18.9146 41.4541 17.2409 43.1278 15.1618 43.1278H10.9146C10.7217 43.1278 10.5367 43.2045 10.4003 43.3409C10.2639 43.4772 10.1873 43.6622 10.1873 43.8551C10.1873 44.048 10.2639 44.233 10.4003 44.3694C10.5367 44.5058 10.7217 44.5824 10.9146 44.5824H15.1618C18.0281 44.5824 20.3691 42.2413 20.3691 39.375V35.1278C20.3691 34.935 20.2925 34.75 20.1561 34.6136C20.0197 34.4772 19.8347 34.4006 19.6419 34.4006H8.87766C7.17369 34.4006 5.82369 33.0506 5.82369 31.3466V12.7273C5.82369 11.0233 7.17369 9.6733 8.87766 9.6733H37.6788C39.3828 9.6733 40.7328 11.0233 40.7328 12.7273V31.3466C40.7328 33.0506 39.3828 34.4006 37.6788 34.4006H26.9146C26.7217 34.4006 26.5367 34.4772 26.4004 34.6136C26.264 34.75 26.1873 34.935 26.1873 35.1278V39.375C26.1873 42.2413 28.5284 44.5824 31.3947 44.5824H35.6419C35.8348 44.5824 36.0197 44.5058 36.1561 44.3694C36.2925 44.233 36.3691 44.048 36.3691 43.8551C36.3691 43.6622 36.2925 43.4772 36.1561 43.3409C36.0197 43.2045 35.8348 43.1278 35.6419 43.1278H31.3947C29.3156 43.1278 27.6419 41.4541 27.6419 39.375V35.8551H37.6788C40.1639 35.8551 42.1873 33.8317 42.1873 31.3466V12.7273C42.1873 10.2422 40.1639 8.21875 37.6788 8.21875H8.87766Z" fill="#13181B"/>
<path d="M39.2789 3.85498H30.5516C27.337 3.85498 24.7334 6.45862 24.7334 9.67316V12.5823C24.7334 15.7968 27.337 18.4005 30.5516 18.4005C31.3952 18.4005 31.9479 19.3168 31.5407 20.0441C30.5952 21.7605 29.097 22.7641 29.097 22.7641C32.2243 22.7641 34.7261 21.5423 36.2389 19.6223C36.8207 18.8805 37.6643 18.4005 38.6098 18.4005H39.2789C42.4934 18.4005 45.097 15.7968 45.097 12.5823V9.67316C45.097 6.45862 42.4934 3.85498 39.2789 3.85498Z" fill="#005984"/>
<path d="M19.3803 19.7532V19.215C20.093 18.4878 20.5585 17.3532 20.5585 15.9569C20.5585 14.1532 19.3221 12.5823 17.4603 12.5823C15.5985 12.5823 14.362 14.1532 14.362 15.9569C14.362 17.3532 14.8275 18.4878 15.5403 19.215V19.7532C15.5403 22.0369 10.1875 21.295 10.1875 26.3423V30.0369H24.733V26.3423C24.733 21.295 19.3803 22.0369 19.3803 19.7532Z" fill="#008DD1"/>
<path d="M5.09641 28.5824C4.90353 28.5824 4.71854 28.659 4.58215 28.7954C4.44576 28.9318 4.36914 29.1168 4.36914 29.3097C4.36914 29.5026 4.44576 29.6875 4.58215 29.8239C4.71854 29.9603 4.90353 30.0369 5.09641 30.0369H41.46C41.6529 30.0369 41.8379 29.9603 41.9743 29.8239C42.1107 29.6875 42.1873 29.5026 42.1873 29.3097C42.1873 29.1168 42.1107 28.9318 41.9743 28.7954C41.8379 28.659 41.6529 28.5824 41.46 28.5824H5.09641Z" fill="#13181B"/>
<path d="M34.9147 8.84413C34.9147 8.84413 36.0638 7.34595 37.4893 7.34595C38.9147 7.34595 40.0638 8.42231 40.0638 9.74595C40.0638 12.1459 37.4893 12.4514 34.9147 16.3641C32.3402 12.4514 29.7656 12.1605 29.7656 9.74595C29.7656 8.42231 30.9147 7.34595 32.3402 7.34595C33.7656 7.34595 34.9147 8.84413 34.9147 8.84413Z" fill="#008DD1"/>
</svg>
